<svg xmlns="http://www.w3.org/2000/svg" xmlns:xlink="http://www.w3.org/1999/xlink" viewBox="0 0 324.48 114.95"><defs><style>.cls-1{fill:none;}.cls-2{fill:#fff;}.cls-3{fill:#bed465;}.cls-4{fill:#82599f;}.cls-5{fill:#fbbb36;}.cls-6{clip-path:url(#clip-path);}.cls-7{fill:#c1d563;}</style><clipPath id="clip-path"><path class="cls-1" d="M324.46,91.36a.44.44,0,0,0-.55-.26h0a8.32,8.32,0,0,1-3.64.53,12.28,12.28,0,0,1-3.66-.86,34.48,34.48,0,0,1-6.7-3.69c-2.14-1.41-4.25-2.88-6.42-4.29A49.12,49.12,0,0,0,296.66,79,27.76,27.76,0,0,0,293,77.66c-.64-.19-1.28-.33-1.95-.46L290,77c-.34,0-.67-.1-1-.13a20.51,20.51,0,0,0-8,.65,17.71,17.71,0,0,0-3.75,1.6,16.1,16.1,0,0,0-3.23,2.53,15.15,15.15,0,0,0-3.29,5.15,2.44,2.44,0,0,0-.05,2c.23.42.85.42,1.17.41,20.9-.55,27.15,12.75,44.8,7.55-.51.15-1.12.56-2,.91a25.3,25.3,0,0,1-3.4,1.1,29.51,29.51,0,0,1-4.58.73,43,43,0,0,1-5.48.06c-1.95-.11-4-.33-6.09-.65-4.21-.63-8.65-1.63-13.1-2.66s-8.92-2.06-13.24-2.71a56.19,56.19,0,0,0-6.31-.6,32,32,0,0,0-5.79.28,22,22,0,0,0-4.89,1.23,19.72,19.72,0,0,0-3.54,1.77c-.46.31-.86.57-1.21.85l-.49.39-.22.16-.15.14-.62.54-.07.07a1.85,1.85,0,0,0,0,2.65,2,2,0,0,0,2.71,0l.58-.57.15-.15.15-.12.34-.29a10.66,10.66,0,0,1,.92-.72,15.44,15.44,0,0,1,2.79-1.59,18.93,18.93,0,0,1,4.1-1.25,28.76,28.76,0,0,1,5.23-.52,52.38,52.38,0,0,1,6,.27l.63.06v.13c.06.39.14.81.21,1.21a24,24,0,0,0,.61,2.36,20.6,20.6,0,0,0,2,4.44,19.69,19.69,0,0,0,3,3.82,22,22,0,0,0,3.88,3,26.58,26.58,0,0,0,9.1,3.35,33.87,33.87,0,0,0,9.64.3,35.49,35.49,0,0,0,9.31-2.31,31.43,31.43,0,0,0,8.25-4.82,26.38,26.38,0,0,0,6.18-7.18,25.46,25.46,0,0,0,3.1-8.86A.5.5,0,0,0,324.46,91.36Z"/></clipPath></defs><g id="Camada_6" data-name="Camada 6"><g id="logo"><path class="cls-2" d="M86.47,7.31q5.85,0,8.9,2.45a12.45,12.45,0,0,1,4.19,6.53,33.17,33.17,0,0,1,1.15,9.06V45.6A4.73,4.73,0,0,1,99.36,49a4.85,4.85,0,0,1-6.8,0,4.73,4.73,0,0,1-1.35-3.44V25.35a15.36,15.36,0,0,0-.67-4.71,6.48,6.48,0,0,0-2.41-3.36,8.34,8.34,0,0,0-5-1.27,10.4,10.4,0,0,0-5.34,1.27,8.57,8.57,0,0,0-3.32,3.36,9.61,9.61,0,0,0-1.15,4.71V45.6A4.76,4.76,0,0,1,72,49a4.87,4.87,0,0,1-6.81,0,4.76,4.76,0,0,1-1.34-3.44V12.93a4.78,4.78,0,0,1,1.34-3.45,4.89,4.89,0,0,1,6.81,0,4.78,4.78,0,0,1,1.34,3.45v3.4l-1.18-.24a15.62,15.62,0,0,1,2-2.89,19.73,19.73,0,0,1,3.17-2.89,16.08,16.08,0,0,1,4.11-2.17A14.4,14.4,0,0,1,86.47,7.31Z"/><path class="cls-2" d="M137.4,8.1a4.56,4.56,0,0,1,3.41,1.38,4.78,4.78,0,0,1,1.34,3.45V33q0,8.38-4.67,13.29T124,51.22q-8.77,0-13.41-4.91T106,33V12.93a4.75,4.75,0,0,1,1.35-3.45,4.88,4.88,0,0,1,6.8,0,4.75,4.75,0,0,1,1.35,3.45V33q0,4.83,2.13,7.16c1.43,1.56,3.56,2.34,6.41,2.34s5.07-.78,6.49-2.34,2.14-3.94,2.14-7.16V12.93A4.78,4.78,0,0,1,134,9.48,4.55,4.55,0,0,1,137.4,8.1Z"/><path class="cls-2" d="M151.91,9.89h18.75a4.32,4.32,0,0,1,4.43,4.43,4.1,4.1,0,0,1-1.26,3.05,4.37,4.37,0,0,1-3.17,1.22H151.91a4.32,4.32,0,0,1-4.43-4.43,4,4,0,0,1,1.27-3A4.35,4.35,0,0,1,151.91,9.89ZM160.38,0a4.42,4.42,0,0,1,3.36,1.38,4.86,4.86,0,0,1,1.31,3.45V40a3.48,3.48,0,0,0,.43,1.82,2.51,2.51,0,0,0,1.19,1,4.32,4.32,0,0,0,3.36,0,4.51,4.51,0,0,1,1.82-.35,2.66,2.66,0,0,1,2,1A4.26,4.26,0,0,1,172.36,50a10,10,0,0,1-5.18,1.43,26.48,26.48,0,0,1-3.68-.28,10,10,0,0,1-3.8-1.34,8.31,8.31,0,0,1-3-3.29,13,13,0,0,1-1.19-6.09V4.83A4.73,4.73,0,0,1,160.38,0Z"/><path class="cls-2" d="M185.9,51.43A4.52,4.52,0,0,1,182.5,50a4.72,4.72,0,0,1-1.34-3.44V13.93a4.74,4.74,0,0,1,1.34-3.45,4.89,4.89,0,0,1,6.81,0,4.78,4.78,0,0,1,1.34,3.45v7.43l-.55-5.3a12.52,12.52,0,0,1,2.25-3.36,13.45,13.45,0,0,1,3.13-2.45,14.29,14.29,0,0,1,3.72-1.47,17.13,17.13,0,0,1,4-.47,6.08,6.08,0,0,1,4,1.34,4,4,0,0,1,1.62,3.17,4.73,4.73,0,0,1-1.34,3.76,4.46,4.46,0,0,1-2.93,1.14,6.56,6.56,0,0,1-2.73-.55,6.78,6.78,0,0,0-2.81-.55,6.87,6.87,0,0,0-2.89.67,8.15,8.15,0,0,0-2.69,2.09,11,11,0,0,0-2,3.53,14.62,14.62,0,0,0-.75,4.94V46.6A4.76,4.76,0,0,1,189.31,50,4.53,4.53,0,0,1,185.9,51.43Z"/><path class="cls-2" d="M226.07,47.6A4.72,4.72,0,0,1,224.73,51a4.85,4.85,0,0,1-6.8,0,4.73,4.73,0,0,1-1.35-3.44V14.93a4.75,4.75,0,0,1,1.35-3.45,4.88,4.88,0,0,1,6.8,0,4.74,4.74,0,0,1,1.34,3.45Z"/><polyline class="cls-2" points="215.73 9.22 215.73 14.23 228.54 6.79 228.54 1.78"/><polyline class="cls-3" points="215.29 8.93 215.29 13.95 228.09 6.5 228.09 1.49"/><polyline class="cls-2" points="213.7 15.58 213.7 20.59 226.5 13.15 226.5 8.14"/><polyline class="cls-4" points="213.25 15.29 213.25 20.31 226.06 12.86 226.06 7.85"/><polyline class="cls-2" points="215.67 19.9 215.67 24.92 228.47 17.48 228.47 12.46"/><polyline class="cls-5" points="215.22 19.62 215.22 24.63 228.03 17.19 228.03 12.18"/><path class="cls-2" d="M0,55.49H18L29.12,73.67,40.21,55.49h18v51.74H41V81.58L29.12,100h-.29L16.93,81.58v25.65H0Z"/><path class="cls-2" d="M60.46,86v-.16c0-12.77,9.17-22.49,22-22.49,15.2,0,22.25,10.58,22.25,23.59,0,.94,0,2-.08,3H77.15a8,8,0,0,0,8.07,5.72c3.21,0,5.88-1.49,8.7-4.38l9.56,7.6c-4.23,5.48-10.27,9.32-19.51,9.32C69.94,108.19,60.46,99.34,60.46,86ZM88.51,82.1c-.39-4.08-2.82-6.43-6-6.43s-5.1,2.51-5.65,6.43Z"/><path class="cls-2" d="M106.73,87.35V87.2c0-12.79,7.69-21.29,17.22-21.29a15.05,15.05,0,0,1,12.13,5.55V53.27h16.78v54H136.08v-5c-2.74,3-5.84,5.91-12,5.91C114.35,108.19,106.73,99.69,106.73,87.35Zm29.72-.22V87c0-4-2.89-7.24-6.73-7.24S123,82.91,123,87v.15c0,4.06,2.89,7.24,6.73,7.24S136.45,91.19,136.45,87.13Z"/><path class="cls-2" d="M157.88,66.87h16.78v5.4a15.37,15.37,0,0,1,12.2-6.36c5.47,0,9.68,2.37,11.9,6.66,3.4-3.85,7.46-6.66,13.67-6.66,8.65,0,14,5.62,14,14.71v26.61H209.62V85.87c0-3.4-2-5.32-4.43-5.32s-4.66,1.92-4.66,5.32v21.36H183.75V85.87c0-3.4-2-5.32-4.43-5.32s-4.66,1.92-4.66,5.32v21.36H157.88Z"/><path class="cls-2" d="M263.21,87.05l-13-20.18h18.11L272.75,75l4.5-8.13h17.82L282.13,87.05l13,20.18H277L272.52,99l-4.51,8.2H250.2Z"/><path class="cls-2" d="M230.54,53.27h17.37V64H230.54Zm.29,13.6h16.78v40.36H230.83Z"/><g class="cls-6"><path class="cls-7" d="M324.46,91.36a.44.44,0,0,0-.55-.26h0a8.32,8.32,0,0,1-3.64.53,12.28,12.28,0,0,1-3.66-.86,34.48,34.48,0,0,1-6.7-3.69c-2.14-1.41-4.25-2.88-6.42-4.29A49.12,49.12,0,0,0,296.66,79,27.76,27.76,0,0,0,293,77.66c-.64-.19-1.28-.33-1.95-.46L290,77c-.34,0-.67-.1-1-.13a20.51,20.51,0,0,0-8,.65,17.71,17.71,0,0,0-3.75,1.6,16.1,16.1,0,0,0-3.23,2.53,15.15,15.15,0,0,0-3.29,5.15,2.44,2.44,0,0,0-.05,2c.23.42.85.42,1.17.41,20.9-.55,27.15,12.75,44.8,7.55-.51.15-1.12.56-2,.91a25.3,25.3,0,0,1-3.4,1.1,29.51,29.51,0,0,1-4.58.73,43,43,0,0,1-5.48.06c-1.95-.11-4-.33-6.09-.65-4.21-.63-8.65-1.63-13.1-2.66s-8.92-2.06-13.24-2.71a56.19,56.19,0,0,0-6.31-.6,32,32,0,0,0-5.79.28,22,22,0,0,0-4.89,1.23,19.72,19.72,0,0,0-3.54,1.77c-.46.31-.86.57-1.21.85l-.49.39-.22.16-.15.14-.62.54-.07.07a1.85,1.85,0,0,0,0,2.65,2,2,0,0,0,2.71,0l.58-.57.15-.15.15-.12.34-.29a10.66,10.66,0,0,1,.92-.72,15.44,15.44,0,0,1,2.79-1.59,18.93,18.93,0,0,1,4.1-1.25,28.76,28.76,0,0,1,5.23-.52,52.38,52.38,0,0,1,6,.27l.63.06v.13c.06.39.14.81.21,1.21a24,24,0,0,0,.61,2.36,20.6,20.6,0,0,0,2,4.44,19.69,19.69,0,0,0,3,3.82,22,22,0,0,0,3.88,3,26.58,26.58,0,0,0,9.1,3.35,33.87,33.87,0,0,0,9.64.3,35.49,35.49,0,0,0,9.31-2.31,31.43,31.43,0,0,0,8.25-4.82,26.38,26.38,0,0,0,6.18-7.18,25.46,25.46,0,0,0,3.1-8.86A.5.5,0,0,0,324.46,91.36Z"/><path class="cls-2" d="M261.58,89.33h.1a85.59,85.59,0,0,1,9,1.12,23.55,23.55,0,0,1,8.09.6,20.85,20.85,0,0,1,2.85,1c1.42.15,1.57-1.78,2.88-1.35l-2.59-3.56,12.94-19.76H277l-4.51,8-4.43-8H250l13,19.76Z"/></g></g></g></svg>