<svg xmlns:xlink="http://www.w3.org/1999/xlink" xmlns="http://www.w3.org/2000/svg" width="75" viewBox="0 0 50 41" fill="none" class="logotipo" height="62" ><g clip-path="url(#clip0)" fill="none"><path d="M12.6254 25.9616L12.0456 26.2591C12.0456 26.2591 11.2464 24.5468 9.78235 24.6574C8.31831 24.7679 8.09896 25.2797 6.33396 25.3885C4.56895 25.4974 0.82809 24.892 0 19.1515C0 19.1515 0.82809 20.3248 2.82945 20.0017C4.83081 19.6786 9.21782 18.7723 10.7125 23.326C10.7125 23.326 8.65669 21.1665 6.31865 21.1937C3.98062 21.2209 2.6271 21.498 1.7276 21.0236C1.7276 21.0236 2.11529 21.6868 5.46846 21.6579C8.82163 21.629 11.0423 24.3785 11.9538 25.426L12.1935 25.3375C12.1935 25.3375 12.4707 22.9825 11.0423 21.3688C9.61401 19.7551 6.65363 18.9781 4.336 17.0277C2.01836 15.0774 -2.23601 9.16171 3.50451 0C3.7427 1.15379 4.22955 2.24179 4.93113 3.18823C5.48295 3.89874 6.14756 4.51394 6.89849 5.00935C10.2891 7.41881 12.2734 8.83013 13.4705 11.1427C14.1516 12.4457 14.5234 13.888 14.557 15.3579C14.5894 17.5752 13.7732 20.2347 13.7732 20.2347C13.7732 20.2347 13.6354 16.7863 12.1442 14.1132C10.653 11.4402 7.8099 9.46608 6.81687 8.52746C5.82384 7.58885 4.16766 5.93267 3.58613 4.38871C3.81438 5.31239 4.18191 6.19594 4.67608 7.00901C5.99218 9.15321 7.46132 9.52219 9.52219 12.0609C10.0322 12.7076 10.5062 13.382 10.942 14.0809C13.2835 17.832 12.9706 23.1695 12.6254 25.9616Z" fill="#06C618"></path><path d="M13.212 26.8662C12.1612 26.8662 11.3898 26.5085 10.8978 25.7932C10.4058 25.0779 10.4058 24.1835 10.8978 23.11L19.2484 5.13178C19.6497 4.26005 20.1411 3.62297 20.7227 3.22054C21.3237 2.8125 22.0368 2.60154 22.7631 2.6169C23.4801 2.60373 24.1834 2.81476 24.7747 3.22054C25.3562 3.62183 25.8482 4.25891 26.2506 5.13178L34.5995 23.1032C35.1131 24.1994 35.1357 25.0995 34.6676 25.8034C34.1994 26.5074 33.4626 26.8594 32.4571 26.8594C31.5626 26.8594 30.8751 26.6582 30.3945 26.2557C29.9138 25.8533 29.4842 25.2066 29.1056 24.3156L28.0326 21.765H20.2346C19.415 21.7654 18.6136 22.0077 17.931 22.4614C17.2483 22.9151 16.7147 23.5601 16.3969 24.3156C15.9956 25.21 15.5824 25.8584 15.1573 26.2608C14.7322 26.6633 14.0838 26.865 13.212 26.8662ZM22.7019 9.35215L19.4831 17.0311H25.9871L22.7682 9.35215H22.7019Z" fill="#383838"></path><path d="M32.493 26.8662C31.4411 26.8662 30.6526 26.5754 30.1278 25.9939C29.6029 25.4124 29.3762 24.6755 29.4476 23.7834C29.5145 22.889 29.9169 21.9821 30.6549 21.0628L39.8098 9.55112C39.9009 9.4365 39.9579 9.29852 39.9741 9.15302C39.9904 9.00751 39.9653 8.86036 39.9018 8.72846C39.8382 8.59656 39.7388 8.48524 39.6148 8.40729C39.4909 8.32933 39.3475 8.28789 39.2011 8.28772H32.022C30.257 8.28772 29.3745 7.43753 29.3745 5.73714C29.3745 4.06055 30.257 3.22226 32.022 3.22226H45.0997C46.1506 3.22226 46.9441 3.51246 47.4803 4.09286C48.0165 4.67326 48.2432 5.4101 48.1604 6.30337C48.0822 7.19777 47.6747 8.10465 46.9379 9.02399L37.6129 20.7159C37.5347 20.8138 37.4858 20.9317 37.4718 21.0562C37.4577 21.1807 37.4791 21.3066 37.5335 21.4194C37.5879 21.5322 37.673 21.6274 37.7791 21.694C37.8852 21.7606 38.008 21.7958 38.1332 21.7956H46.1064C47.8714 21.7956 48.7544 22.6339 48.7556 24.3105C48.7556 26.0109 47.8725 26.8611 46.1064 26.8611L32.493 26.8662Z" fill="#383838"></path><path d="M12.9 37.4085H11.1885L9.37678 34.6639V37.4085H7.66526V31.9502H9.37678L11.1885 34.741V31.9502H12.9V37.4085ZM15.3462 31.9502V35.0263C15.3462 35.2781 15.4002 35.4786 15.5081 35.6276C15.6212 35.7715 15.8011 35.8435 16.0478 35.8435C16.2945 35.8435 16.477 35.7715 16.5952 35.6276C16.7134 35.4786 16.7725 35.2781 16.7725 35.0263V31.9502H18.4763V35.0263C18.4763 35.5454 18.3684 35.99 18.1525 36.36C17.9366 36.725 17.6411 36.9999 17.2659 37.185C16.8907 37.37 16.4718 37.4625 16.0093 37.4625C15.5467 37.4625 15.1355 37.37 14.7757 37.185C14.4211 36.9999 14.1436 36.725 13.9431 36.36C13.7427 35.9951 13.6424 35.5505 13.6424 35.0263V31.9502H15.3462ZM23.501 31.9502V33.3071H22.0516V37.4085H20.3401V33.3071H18.9061V31.9502H23.501ZM26.7098 37.4085L25.6844 35.4503H25.6767V37.4085H23.9652V31.9502H26.5093C26.9513 31.9502 27.3291 32.0299 27.6426 32.1892C27.9561 32.3434 28.19 32.5567 28.3442 32.8291C28.5035 33.0963 28.5832 33.3996 28.5832 33.7388C28.5832 34.1037 28.4804 34.4275 28.2748 34.7102C28.0744 34.9929 27.784 35.1959 27.4036 35.3193L28.5909 37.4085H26.7098ZM25.6767 34.3093H26.3551C26.5196 34.3093 26.643 34.2733 26.7252 34.2014C26.8074 34.1243 26.8485 34.0061 26.8485 33.8467C26.8485 33.7028 26.8049 33.5898 26.7175 33.5075C26.6353 33.4253 26.5145 33.3842 26.3551 33.3842H25.6767V34.3093ZM30.8415 31.9502V37.4085H29.13V31.9502H30.8415ZM34.1278 35.8666C34.3231 35.8666 34.4953 35.8178 34.6443 35.7202C34.7985 35.6174 34.9167 35.476 34.999 35.2961H36.803C36.7053 35.8666 36.4689 36.3395 36.0937 36.7147C35.7185 37.0899 35.2431 37.3212 34.6675 37.4085H34.706V37.6707C34.8499 37.6707 34.999 37.6989 35.1532 37.7555C35.3073 37.8171 35.4384 37.9174 35.5463 38.0561C35.6543 38.2001 35.7082 38.3851 35.7082 38.6112C35.7082 38.9453 35.5926 39.1843 35.3613 39.3282C35.13 39.4773 34.8602 39.5518 34.5518 39.5518H33.2181V38.6806H34.3745C34.4362 38.6806 34.485 38.6678 34.521 38.6421C34.5569 38.6215 34.5749 38.5932 34.5749 38.5573C34.5749 38.4802 34.5081 38.4416 34.3745 38.4416H33.7192V37.4162C33.2566 37.3546 32.8531 37.2004 32.5088 36.9537C32.1696 36.707 31.91 36.3883 31.7301 35.9977C31.5502 35.6071 31.4603 35.1651 31.4603 34.6717C31.4603 34.132 31.5682 33.6514 31.7841 33.23C32.0051 32.8085 32.3186 32.4822 32.7247 32.2509C33.1307 32.0144 33.6087 31.8962 34.1586 31.8962C34.6315 31.8962 35.0529 31.9862 35.423 32.1661C35.7982 32.3408 36.1014 32.5901 36.3327 32.9139C36.5691 33.2377 36.7259 33.6155 36.803 34.0472H34.999C34.9167 33.8673 34.7985 33.7285 34.6443 33.6309C34.4953 33.5281 34.3231 33.4767 34.1278 33.4767C33.84 33.4767 33.6112 33.5846 33.4416 33.8005C33.2772 34.0163 33.1949 34.3067 33.1949 34.6717C33.1949 35.0366 33.2772 35.327 33.4416 35.5428C33.6112 35.7587 33.84 35.8666 34.1278 35.8666ZM40.9193 36.5836H39.0999L38.8301 37.4085H37.0337L39.0305 31.9502H41.0041L42.9932 37.4085H41.1892L40.9193 36.5836ZM40.503 35.2961L40.0096 33.7774L39.5162 35.2961H40.503ZM38.2133 31.6341C38.2955 31.1561 38.4394 30.8118 38.645 30.601C38.8558 30.3852 39.1256 30.2772 39.4545 30.2772C39.5779 30.2772 39.6935 30.2952 39.8015 30.3312C39.9094 30.3672 40.025 30.4186 40.1484 30.4854C40.246 30.5368 40.3231 30.5753 40.3797 30.601C40.4413 30.6216 40.503 30.6319 40.5647 30.6319C40.7549 30.6319 40.8679 30.5111 40.9039 30.2695H41.7443C41.662 30.7475 41.5155 31.0919 41.3048 31.3026C41.0992 31.5133 40.832 31.6187 40.503 31.6187C40.3797 31.6187 40.264 31.6007 40.1561 31.5647C40.0482 31.5287 39.9325 31.4773 39.8092 31.4105C39.7372 31.3746 39.6653 31.3437 39.5933 31.318C39.5213 31.2872 39.4545 31.2718 39.3928 31.2718C39.2078 31.2718 39.0922 31.3925 39.0459 31.6341H38.2133ZM46.0418 37.4625C45.5279 37.4625 45.055 37.3417 44.6233 37.1002C44.1967 36.8586 43.8575 36.5245 43.6056 36.0979C43.3538 35.6713 43.2279 35.1908 43.2279 34.6562C43.2279 34.1217 43.3538 33.6412 43.6056 33.2146C43.8575 32.788 44.1967 32.4565 44.6233 32.22C45.055 31.9785 45.5279 31.8577 46.0418 31.8577C46.5558 31.8577 47.0261 31.9785 47.4527 32.22C47.8793 32.4565 48.2159 32.788 48.4626 33.2146C48.7145 33.6412 48.8404 34.1217 48.8404 34.6562C48.8404 35.1908 48.7145 35.6713 48.4626 36.0979C48.2159 36.5245 47.8767 36.8586 47.445 37.1002C47.0184 37.3417 46.5507 37.4625 46.0418 37.4625ZM46.0418 35.8666C46.3811 35.8666 46.6432 35.7587 46.8282 35.5428C47.0132 35.3218 47.1057 35.0263 47.1057 34.6562C47.1057 34.281 47.0132 33.9855 46.8282 33.7696C46.6432 33.5486 46.3811 33.4381 46.0418 33.4381C45.6975 33.4381 45.4328 33.5486 45.2478 33.7696C45.0627 33.9855 44.9702 34.281 44.9702 34.6562C44.9702 35.0263 45.0627 35.3218 45.2478 35.5428C45.4328 35.7587 45.6975 35.8666 46.0418 35.8666Z" fill="#383838"></path></g><defs><clipPath id="clip0"><rect width="50" height="40.6666" fill="white"></rect></clipPath></defs></svg>