<svg width="261" height="144" viewBox="0 0 261 144" fill="none" xmlns="http://www.w3.org/2000/svg">
<path d="M67.9617 139.019L64.8698 140.606C64.8698 140.606 60.6078 131.475 52.8005 132.064C44.9931 132.654 43.8234 135.383 34.4112 135.963C24.9989 136.544 5.04989 133.315 0.633911 102.703C0.633911 102.703 5.04988 108.96 15.7226 107.237C26.3953 105.514 49.79 100.681 57.7607 124.964C57.7607 124.964 46.7976 113.448 34.3295 113.593C21.8615 113.738 14.6435 115.216 9.84672 112.686C9.84672 112.686 11.9142 116.223 29.7957 116.069C47.6772 115.915 59.5194 130.577 64.3802 136.163L65.6585 135.691C65.6585 135.691 67.1367 123.133 59.5194 114.527C51.9028 105.922 36.1159 101.778 23.7566 91.3773C11.3973 80.9769 -11.2901 49.4302 19.3225 0.573303C20.5927 6.72614 23.1889 12.5281 26.9303 17.5752C29.873 21.3642 33.4171 24.6449 37.4216 27.2868C55.5028 40.1358 66.0845 47.6619 72.4683 59.9942C76.1005 66.9428 78.0832 74.6341 78.2624 82.4727C78.4351 94.297 74.0826 108.479 74.0826 108.479C74.0826 108.479 73.3477 90.09 65.3956 75.8351C57.4434 61.5807 42.2819 51.0533 36.9864 46.0479C31.6908 41.0425 22.8589 32.2106 19.7577 23.9771C20.9749 28.9028 22.9349 33.6145 25.5701 37.9504C32.5885 49.3848 40.4231 51.3525 51.4131 64.8907C54.1328 68.3394 56.6606 71.9358 58.9846 75.6628C71.4711 95.6664 69.8025 124.13 67.9617 139.019Z" fill="#059313"/>
<path d="M71.0899 143.843C65.4863 143.843 61.3726 141.936 58.7489 138.121C56.1252 134.307 56.1252 129.537 58.7489 123.812L103.28 27.9397C105.42 23.291 108.041 19.8936 111.142 17.7476C114.347 15.5716 118.15 14.4466 122.023 14.5285C125.847 14.4583 129.597 15.5836 132.751 17.7476C135.852 19.8875 138.475 23.2849 140.621 27.9397L185.143 123.776C187.882 129.622 188.003 134.422 185.507 138.176C183.01 141.93 179.081 143.807 173.719 143.807C168.949 143.807 165.282 142.734 162.719 140.588C160.156 138.442 157.865 134.993 155.846 130.242L150.124 116.64H108.539C104.169 116.642 99.8951 117.934 96.255 120.354C92.6143 122.773 89.7688 126.213 88.0741 130.242C85.934 135.011 83.7306 138.469 81.4636 140.615C79.1967 142.761 75.739 143.837 71.0899 143.843ZM121.697 50.4457L104.532 91.3954H139.216L122.05 50.4457H121.697Z" fill="white"/>
<path d="M173.91 143.843C168.301 143.843 164.096 142.292 161.297 139.192C158.498 136.091 157.289 132.161 157.67 127.404C158.027 122.634 160.173 117.798 164.108 112.895L212.929 51.5067C213.415 50.8955 213.718 50.1597 213.805 49.3838C213.892 48.6078 213.758 47.8231 213.419 47.1197C213.08 46.4163 212.55 45.8227 211.889 45.407C211.228 44.9913 210.463 44.7703 209.683 44.7694H171.399C161.986 44.7694 157.28 40.2355 157.28 31.1678C157.28 22.2271 161.986 17.7567 171.399 17.7567H241.138C246.742 17.7567 250.974 19.3042 253.833 22.3994C256.693 25.4945 257.902 29.4238 257.46 34.1874C257.043 38.957 254.87 43.7931 250.941 48.6957L201.213 111.045C200.796 111.567 200.535 112.196 200.461 112.86C200.386 113.524 200.5 114.195 200.79 114.797C201.08 115.398 201.534 115.906 202.1 116.261C202.665 116.616 203.32 116.804 203.988 116.803H246.507C255.919 116.803 260.628 121.274 260.634 130.214C260.634 139.282 255.925 143.816 246.507 143.816L173.91 143.843Z" fill="white"/>
</svg>
