<svg id="atendente" width="183" height="344" viewBox="0 0 183 344" fill="none" xmlns="http://www.w3.org/2000/svg">
    <path d="M117.548 205.482C115.048 197.482 116.548 188.982 117.548 184.482C102.548 182.482 72.8485 180.282 74.0485 187.482C75.5485 196.482 76.0485 202.482 75.5485 207.982C75.1485 212.382 72.0485 215.482 70.5485 216.482C54.5485 224.482 42.8818 227.315 30.5485 231.482L22.5485 242.482L81.5485 276.982L164.548 242.982C154.548 229.482 138.048 222.732 129.548 218.482C123.548 215.482 120.048 214.482 117.548 205.482Z" fill="#62443C"/>
    <mask id="mask0" mask-type="alpha" maskUnits="userSpaceOnUse" x="22" y="182" width="143" height="95">
    <path d="M117.548 205.482C115.048 197.482 116.548 188.982 117.548 184.482C102.548 182.482 72.8485 180.282 74.0485 187.482C75.5485 196.482 76.0485 202.482 75.5485 207.982C75.1485 212.382 72.0485 215.482 70.5485 216.482C54.5485 224.482 42.8818 227.315 30.5485 231.482L22.5485 242.482L81.5485 276.982L164.548 242.982C154.548 229.482 138.048 222.732 129.548 218.482C123.548 215.482 120.048 214.482 117.548 205.482Z" fill="#62443C"/>
    </mask>
    <g mask="url(#mask0)">
    <path d="M118.548 199.482V183.982L72.5485 186.982L73.5485 209.482C90.8835 215.551 100.789 211.158 118.548 199.482Z" fill="#583B3D"/>
    </g>
    <path d="M30.5484 106.482C33.3484 106.482 35.7151 109.149 36.5484 110.482C37.5484 120.149 38.1484 139.082 32.5484 137.482C25.5484 135.482 23.0484 129.482 22.5484 119.482C22.0484 109.482 27.0484 106.482 30.5484 106.482Z" fill="#603D37"/>
    <path d="M125.548 182.482C142.548 174.482 146.048 153.482 147.048 144.482V97.4821L97.5485 65.9821L44.5485 87.4821L38.5485 99.9821C34.6662 112.933 33.373 118.925 32.5485 127.482C32.5485 127.482 31.5485 147.982 33.0485 154.982C34.5485 161.982 35.5485 173.482 57.5485 183.982C59.1485 184.782 72.0485 190.482 90.5485 189.982C95.3485 189.982 115.548 187.482 125.548 182.482Z" fill="#62443C"/>
    <path d="M179.548 283.982C176.748 259.582 167.715 245.482 163.548 241.482C134.713 255.585 119.121 259.079 91.5485 263.482L81.5485 274.482L74.0485 262.982C52.5819 257.803 42.1252 252.389 30.5485 231.482C3.80946 255.065 -0.636108 282.436 0.548462 343.482H174.048C177.048 333.815 182.348 308.382 179.548 283.982Z" fill="url(#paint0_linear)"/>
    <path d="M105.548 84.4821C110.129 96.9214 114.192 102.746 125.548 109.982C132.715 119.649 147.048 139.582 147.048 141.982C147.048 144.382 146.715 147.982 146.548 149.482C160.048 150.482 167.072 143.068 167.048 131.982C179.548 132.982 179.048 121.982 170.548 118.982C185.548 107.482 183.048 95.9821 176.048 88.9821C189.548 65.4821 179.549 43.9821 157.548 47.4821C155.299 31.944 148.048 23.4821 134.548 27.9821L130.548 30.9821V25.9821C130.548 9.48206 117.048 4.98206 104.048 22.9821C102.548 -9.51795 43.0484 -8.01796 46.5484 30.4821C31.2305 21.3491 17.0484 26.9821 17.0484 44.482C-2.95164 49.982 -3.95164 77.4821 17.0484 85.9821C12.7766 107.984 15.5484 115.982 22.5484 121.982L33.5484 120.482C35.2688 112.027 36.3704 107.557 38.5484 99.9821C47.542 101.759 54.5483 98.9821 57.5483 92.4821C66.0483 98.9821 77.5483 95.9821 79.5483 83.9821C87.5483 92.4821 98.0483 92.4821 105.548 84.4821Z" fill="#3B2238"/>
    <path fill-rule="evenodd" clip-rule="evenodd" d="M22.7219 121.958L33.5483 120.482C34.4328 116.135 35.1537 112.842 35.9414 109.638C34.8317 108.26 32.8345 106.482 30.5484 106.482C27.0484 106.482 22.0484 109.482 22.5484 119.482C22.5911 120.337 22.6484 121.162 22.7219 121.958Z" fill="#603D37"/>
    <path d="M27.5484 116.982C29.9738 111.811 35.0915 112.687 35.0484 112.982C33.3662 119.59 32.8676 123.062 32.5484 128.982C30.1913 130.354 24.0776 124.382 27.5484 116.982Z" fill="#573335"/>
    <path fill-rule="evenodd" clip-rule="evenodd" d="M155.19 99.8264C165.024 53.7391 151.325 19.9962 104.049 22.9821C132.994 31.9652 142.477 59.3877 137.079 99.7544C128.55 103.279 122.548 111.68 122.548 121.482C122.548 131.023 128.235 139.237 136.404 142.918C132.982 164.491 126.278 170.331 104.548 166.982C104.715 165.982 104.948 163.882 104.548 163.482C104.048 162.982 99.5485 160.982 96.5485 160.982C93.5485 160.982 88.5485 163.482 88.5485 166.482C88.5485 169.482 91.6863 171.724 95.0485 172.982C97.2506 173.806 99.5485 173.982 101.048 173.482C102.248 173.082 102.882 171.982 103.048 171.482C123.488 179.458 141.442 171.529 142.539 144.722C143.684 144.893 144.856 144.982 146.048 144.982C159.027 144.982 169.548 134.461 169.548 121.482C169.548 111.746 163.628 103.392 155.19 99.8264Z" fill="#F0DAB5"/>
    <circle r="15.5" transform="matrix(-1 0 0 1 149.048 121.482)" fill="#EEFFFF"/>
    <path d="M86.0485 128.482C86.0485 131.796 87.5485 134.482 90.5485 134.482C92.5485 134.482 94.0485 131.796 94.0485 128.482C94.0485 125.168 92.5485 121.899 90.0485 121.482C87.5485 121.065 86.0485 125.168 86.0485 128.482Z" fill="#3B2238"/>
    <path d="M49.5485 128.482C49.5485 131.796 51.0485 134.482 54.0485 134.482C56.0485 134.482 57.5485 131.796 57.5485 128.482C57.5485 125.168 56.0485 121.899 53.5485 121.482C51.0485 121.065 49.5485 125.168 49.5485 128.482Z" fill="#3B2238"/>
    <path d="M105.048 115.982C106.304 115.91 106.737 115.574 107.048 114.482C97.8886 101.974 92.7304 99.134 85.0485 99.4821C81.6968 101.544 82.0485 106.982 83.0485 106.982C84.0485 106.982 99.8382 109.996 105.048 115.982Z" fill="#3B2238"/>
    <path d="M62.0485 112.982C63.6485 110.182 62.0485 107.149 61.0485 105.982C57.5886 103.539 40.223 112.143 37.0485 116.982C36.6097 117.651 38.0485 118.649 38.5485 118.982C46.1485 114.582 57.3818 113.149 62.0485 112.982Z" fill="#3B2238"/>
    <path d="M74.0485 139.482C74.428 136.067 73.3373 122.48 72.6552 115.119C72.5993 114.515 72.0189 114.103 71.4704 114.361C63.7795 117.982 60.889 139.526 61.0485 140.482C61.5485 143.482 69.3387 143.385 72.0485 142.482C73.2485 142.082 73.8818 140.315 74.0485 139.482Z" fill="#9F227E"/>
    <path d="M52.0485 142.482C61.0485 150.982 77.1753 151.318 91.5485 145.482C94.0485 147.982 94.1047 152.503 92.0485 155.482C87.0398 161.297 75.5485 162.982 69.0485 162.482C54.5485 160.482 48.5485 152.982 52.0485 142.482Z" fill="white"/>
    <circle r="6" transform="matrix(-1 0 0 1 79.5485 306.982)" fill="white"/>
    <circle r="6" transform="matrix(-1 0 0 1 80.5485 284.982)" fill="white"/>
    <path d="M145.548 277.482C144.688 311.78 144.06 329.246 141.548 343.482H127.548C130.548 336.482 140.548 289.482 141.548 284.482C142.348 280.482 144.548 278.149 145.548 277.482Z" fill="#5F75DB"/>
    <path d="M19.0485 286.982C25.2054 307.284 27.61 319.398 30.5485 343.482H17.5485C17.0408 321.351 16.9345 309.422 19.0485 286.982Z" fill="#5D8BE3"/>
    <defs>
    <linearGradient id="paint0_linear" x1="4.04845" y1="287.982" x2="180.548" y2="304.982" gradientUnits="userSpaceOnUse">
    <stop stop-color="#5EBBFB"/>
    <stop offset="1" stop-color="#6585E8"/>
    </linearGradient>
    </defs>
</svg>
