<svg width="291" height="237" viewBox="0 0 291 237" fill="none" xmlns="http://www.w3.org/2000/svg">
<g filter="url(#filter0_d)">
<rect x="6" y="76.3334" width="273.062" height="150.658" rx="21.9076" fill="url(#paint0_linear)"/>
<mask id="mask0" mask-type="alpha" maskUnits="userSpaceOnUse" x="6" y="78" width="274" height="151">
<rect x="6" y="78.3421" width="273.062" height="150.658" rx="21.9076" fill="url(#paint1_linear)"/>
</mask>
<g mask="url(#mask0)">
<path d="M295.875 126.553C189.316 191.268 124.063 208.475 -3.27599 201.212V249.088H295.875V126.553Z" fill="#C4C4C4"/>
</g>
</g>
<rect x="24" y="66" width="181" height="34" rx="11.5982" fill="#C5C5C5"/>
<rect x="18" y="58" width="193" height="38" rx="18.0416" fill="#664CBA"/>
<g opacity="0.05">
<mask id="mask1" mask-type="alpha" maskUnits="userSpaceOnUse" x="18" y="58" width="193" height="38">
<rect x="18.0765" y="58.2544" width="192.924" height="37.4971" rx="18.0416" fill="#664CBA"/>
</mask>
<g mask="url(#mask1)">
<path d="M215.572 70.9766C191.342 54.9064 63.7929 92.4035 13.962 78.3421C-35.869 64.2807 13.962 100.104 13.962 100.104H215.572C215.572 100.104 239.801 87.0468 215.572 70.9766Z" fill="white"/>
</g>
</g>
<path d="M33.082 81.7646C32.6838 81.7646 32.3633 81.6432 32.1205 81.4003C31.8777 81.1575 31.7562 80.837 31.7562 80.4388V72.6444C31.7562 72.2462 31.8631 71.9403 32.0768 71.7266C32.2904 71.5129 32.5964 71.4061 32.9946 71.4061H37.8898C38.3268 71.4061 38.6473 71.4935 38.8513 71.6683C39.0553 71.8334 39.1572 72.1005 39.1572 72.4696C39.1572 72.829 39.0504 73.0912 38.8367 73.2563C38.6328 73.4214 38.3171 73.504 37.8898 73.504H34.3932V75.398H37.5984C38.0257 75.398 38.3414 75.4854 38.5454 75.6602C38.759 75.835 38.8659 76.1021 38.8659 76.4615C38.8659 76.8209 38.759 77.0831 38.5454 77.2482C38.3414 77.4133 38.0257 77.4959 37.5984 77.4959H34.3932V80.4388C34.3932 80.8467 34.2718 81.1721 34.029 81.4149C33.7959 81.648 33.4802 81.7646 33.082 81.7646ZM49.2446 80.0309C49.332 80.2154 49.3757 80.3951 49.3757 80.5699C49.3757 80.8904 49.2446 81.1624 48.9824 81.3858C48.7299 81.6092 48.4385 81.7209 48.1082 81.7209C47.8849 81.7209 47.6809 81.6626 47.4964 81.546C47.3118 81.4295 47.1661 81.2547 47.0593 81.0216L46.4037 79.5501H41.6834L41.0132 81.0216C40.9064 81.2547 40.7558 81.4295 40.5616 81.546C40.377 81.6626 40.173 81.7209 39.9497 81.7209C39.6194 81.7209 39.3183 81.6092 39.0464 81.3858C38.7841 81.1624 38.653 80.8904 38.653 80.5699C38.653 80.3951 38.6967 80.2154 38.7841 80.0309L42.6303 72.1345C42.7566 71.8723 42.9411 71.6732 43.184 71.5372C43.4365 71.3915 43.7133 71.3187 44.0144 71.3187C44.3058 71.3187 44.5777 71.3915 44.8302 71.5372C45.0828 71.6732 45.2722 71.8723 45.3984 72.1345L49.2446 80.0309ZM42.5866 77.5396H45.5004L44.0435 74.2907L42.5866 77.5396ZM51.7321 81.6772C51.3339 81.6772 51.028 81.5703 50.8143 81.3566C50.6006 81.143 50.4938 80.8322 50.4938 80.4242V72.6444C50.4938 72.2462 50.6103 71.9306 50.8434 71.6975C51.0863 71.4546 51.4116 71.3332 51.8196 71.3332C52.2372 71.3332 52.5674 71.4546 52.8102 71.6975C53.0531 71.9306 53.1745 72.2462 53.1745 72.6444V79.5064H56.5253C57.3703 79.5064 57.7928 79.8706 57.7928 80.5991C57.7928 80.9681 57.686 81.2401 57.4723 81.4149C57.2683 81.5897 56.9527 81.6772 56.5253 81.6772H51.7321ZM60.0694 81.6772C59.6712 81.6772 59.3653 81.5703 59.1516 81.3566C58.9379 81.143 58.8311 80.837 58.8311 80.4388V72.6444C58.8311 72.2462 58.9379 71.9403 59.1516 71.7266C59.3653 71.5129 59.6712 71.4061 60.0694 71.4061H65.1103C65.5279 71.4061 65.8436 71.4935 66.0573 71.6683C66.2709 71.8431 66.3778 72.0957 66.3778 72.4259C66.3778 73.1252 65.9553 73.4749 65.1103 73.4749H61.4389V75.4271H64.8189C65.6639 75.4271 66.0864 75.7719 66.0864 76.4615C66.0864 76.7917 65.9796 77.0442 65.7659 77.2191C65.5522 77.3939 65.2365 77.4813 64.8189 77.4813H61.4389V79.6084H65.1103C65.9553 79.6084 66.3778 79.958 66.3778 80.6573C66.3778 80.9876 66.2709 81.2401 66.0573 81.4149C65.8436 81.5897 65.5279 81.6772 65.1103 81.6772H60.0694ZM76.5587 81.8083C75.5292 81.8083 74.6259 81.5946 73.8489 81.1672C73.0816 80.7399 72.4843 80.128 72.0569 79.3316C71.6393 78.5351 71.4305 77.6027 71.4305 76.5343C71.4305 75.4757 71.6393 74.5481 72.0569 73.7517C72.4843 72.9552 73.0816 72.3433 73.8489 71.916C74.6259 71.4886 75.5292 71.275 76.5587 71.275C77.7922 71.275 78.8752 71.6003 79.8076 72.2511C79.9727 72.3676 80.0892 72.4939 80.1572 72.6299C80.2349 72.7658 80.2738 72.9407 80.2738 73.1543C80.2738 73.4554 80.1864 73.7128 80.0115 73.9265C79.8464 74.1305 79.6425 74.2324 79.3996 74.2324C79.254 74.2324 79.1228 74.213 79.0063 74.1742C78.8897 74.1256 78.7538 74.0528 78.5984 73.9556C78.2584 73.7517 77.9379 73.606 77.6368 73.5186C77.3357 73.4312 77.0249 73.3874 76.7044 73.3874C75.84 73.3874 75.1941 73.6497 74.7667 74.1742C74.3491 74.6889 74.1403 75.4757 74.1403 76.5343C74.1403 77.6027 74.3491 78.3992 74.7667 78.9236C75.1941 79.4384 75.84 79.6958 76.7044 79.6958C76.9958 79.6958 77.2774 79.6521 77.5494 79.5647C77.8213 79.4675 78.171 79.3218 78.5984 79.1276C78.8023 79.0208 78.9529 78.9479 79.05 78.9091C79.1471 78.8702 79.2637 78.8508 79.3996 78.8508C79.6425 78.8508 79.8464 78.9576 80.0115 79.1713C80.1864 79.3753 80.2738 79.6278 80.2738 79.9289C80.2738 80.1329 80.2349 80.3077 80.1572 80.4534C80.0892 80.5893 79.9727 80.7156 79.8076 80.8322C78.8752 81.4829 77.7922 81.8083 76.5587 81.8083ZM86.2195 81.8083C85.1705 81.8083 84.2575 81.5946 83.4805 81.1672C82.7132 80.7302 82.1208 80.1183 81.7031 79.3316C81.2855 78.5351 81.0767 77.6027 81.0767 76.5343C81.0767 75.4659 81.2855 74.5384 81.7031 73.7517C82.1208 72.9552 82.7132 72.3433 83.4805 71.916C84.2575 71.4886 85.1705 71.275 86.2195 71.275C87.2684 71.275 88.1766 71.4886 88.9439 71.916C89.7209 72.3433 90.3133 72.9552 90.7213 73.7517C91.1389 74.5384 91.3477 75.4659 91.3477 76.5343C91.3477 77.6027 91.1389 78.5351 90.7213 79.3316C90.3036 80.1183 89.7063 80.7302 88.9293 81.1672C88.162 81.5946 87.2587 81.8083 86.2195 81.8083ZM86.2195 79.7541C86.9965 79.7541 87.6035 79.4821 88.0406 78.9382C88.4777 78.3846 88.6962 77.5833 88.6962 76.5343C88.6962 75.4854 88.4728 74.6889 88.026 74.145C87.589 73.6011 86.9868 73.3292 86.2195 73.3292C85.4425 73.3292 84.8354 73.6011 84.3984 74.145C83.9613 74.6792 83.7428 75.4757 83.7428 76.5343C83.7428 77.593 83.9613 78.3943 84.3984 78.9382C84.8354 79.4821 85.4425 79.7541 86.2195 79.7541ZM100.831 71.3332C101.2 71.3332 101.501 71.4546 101.734 71.6975C101.977 71.9403 102.098 72.2559 102.098 72.6444V80.4388C102.098 80.837 101.982 81.1575 101.748 81.4003C101.515 81.6432 101.214 81.7646 100.845 81.7646C100.408 81.7646 100.078 81.6189 99.8545 81.3275L95.4256 75.8059V80.4388C95.4256 80.837 95.3139 81.1575 95.0905 81.4003C94.8671 81.6432 94.566 81.7646 94.1872 81.7646C93.8181 81.7646 93.517 81.6432 93.2839 81.4003C93.0508 81.1575 92.9343 80.837 92.9343 80.4388V72.6444C92.9343 72.2559 93.0508 71.9403 93.2839 71.6975C93.517 71.4546 93.8181 71.3332 94.1872 71.3332C94.6048 71.3332 94.9302 71.4789 95.1633 71.7703L99.5923 77.2773V72.6444C99.5923 72.2462 99.704 71.9306 99.9273 71.6975C100.16 71.4546 100.462 71.3332 100.831 71.3332ZM108.841 81.8083C107.792 81.8083 106.879 81.5946 106.102 81.1672C105.335 80.7302 104.742 80.1183 104.325 79.3316C103.907 78.5351 103.698 77.6027 103.698 76.5343C103.698 75.4659 103.907 74.5384 104.325 73.7517C104.742 72.9552 105.335 72.3433 106.102 71.916C106.879 71.4886 107.792 71.275 108.841 71.275C109.89 71.275 110.798 71.4886 111.566 71.916C112.343 72.3433 112.935 72.9552 113.343 73.7517C113.761 74.5384 113.969 75.4659 113.969 76.5343C113.969 77.6027 113.761 78.5351 113.343 79.3316C112.925 80.1183 112.328 80.7302 111.551 81.1672C110.784 81.5946 109.88 81.8083 108.841 81.8083ZM108.841 79.7541C109.618 79.7541 110.225 79.4821 110.662 78.9382C111.099 78.3846 111.318 77.5833 111.318 76.5343C111.318 75.4854 111.094 74.6889 110.648 74.145C110.211 73.6011 109.608 73.3292 108.841 73.3292C108.064 73.3292 107.457 73.6011 107.02 74.145C106.583 74.6792 106.364 75.4757 106.364 76.5343C106.364 77.593 106.583 78.3943 107.02 78.9382C107.457 79.4821 108.064 79.7541 108.841 79.7541ZM119.417 81.8083C118.64 81.8083 117.916 81.7257 117.246 81.5606C116.585 81.3858 116.042 81.1478 115.614 80.8467C115.449 80.7205 115.328 80.5893 115.25 80.4534C115.182 80.3174 115.148 80.1426 115.148 79.9289C115.148 79.6375 115.235 79.385 115.41 79.1713C115.585 78.9576 115.789 78.8508 116.022 78.8508C116.148 78.8508 116.27 78.8702 116.386 78.9091C116.503 78.9479 116.649 79.0208 116.823 79.1276C117.222 79.351 117.615 79.5112 118.003 79.6084C118.402 79.7055 118.848 79.7541 119.344 79.7541C119.917 79.7541 120.349 79.6715 120.64 79.5064C120.942 79.3316 121.092 79.079 121.092 78.7488C121.092 78.5254 120.951 78.336 120.67 78.1806C120.398 78.0155 119.873 77.8552 119.096 77.6998C118.135 77.4959 117.382 77.2531 116.838 76.9714C116.294 76.6897 115.91 76.3595 115.687 75.9807C115.473 75.5922 115.367 75.126 115.367 74.5821C115.367 73.9605 115.551 73.3972 115.92 72.8921C116.289 72.387 116.794 71.9937 117.435 71.712C118.086 71.4206 118.814 71.275 119.621 71.275C120.33 71.275 120.961 71.3527 121.515 71.5081C122.068 71.6635 122.573 71.9063 123.03 72.2365C123.205 72.3628 123.326 72.4987 123.394 72.6444C123.472 72.7804 123.511 72.9504 123.511 73.1543C123.511 73.4457 123.423 73.6982 123.248 73.9119C123.083 74.1256 122.884 74.2324 122.651 74.2324C122.525 74.2324 122.408 74.2179 122.301 74.1887C122.194 74.1499 122.044 74.0722 121.85 73.9556C121.801 73.9265 121.66 73.8537 121.427 73.7371C121.204 73.6108 120.937 73.5137 120.626 73.4457C120.325 73.368 119.995 73.3292 119.635 73.3292C119.14 73.3292 118.742 73.4263 118.441 73.6205C118.139 73.8051 117.989 74.0528 117.989 74.3636C117.989 74.5481 118.042 74.6986 118.149 74.8152C118.256 74.9318 118.455 75.0483 118.747 75.1649C119.038 75.2717 119.47 75.3834 120.043 75.4999C120.976 75.7039 121.709 75.9516 122.243 76.243C122.777 76.5246 123.156 76.8548 123.379 77.2336C123.603 77.6124 123.714 78.0592 123.714 78.574C123.714 79.215 123.535 79.7832 123.175 80.2785C122.816 80.7642 122.311 81.143 121.66 81.4149C121.019 81.6772 120.271 81.8083 119.417 81.8083ZM130.097 81.8083C129.067 81.8083 128.164 81.5946 127.387 81.1672C126.619 80.7399 126.022 80.128 125.595 79.3316C125.177 78.5351 124.968 77.6027 124.968 76.5343C124.968 75.4757 125.177 74.5481 125.595 73.7517C126.022 72.9552 126.619 72.3433 127.387 71.916C128.164 71.4886 129.067 71.275 130.097 71.275C131.33 71.275 132.413 71.6003 133.345 72.2511C133.511 72.3676 133.627 72.4939 133.695 72.6299C133.773 72.7658 133.812 72.9407 133.812 73.1543C133.812 73.4554 133.724 73.7128 133.549 73.9265C133.384 74.1305 133.18 74.2324 132.938 74.2324C132.792 74.2324 132.661 74.213 132.544 74.1742C132.428 74.1256 132.292 74.0528 132.136 73.9556C131.796 73.7517 131.476 73.606 131.175 73.5186C130.874 73.4312 130.563 73.3874 130.242 73.3874C129.378 73.3874 128.732 73.6497 128.305 74.1742C127.887 74.6889 127.678 75.4757 127.678 76.5343C127.678 77.6027 127.887 78.3992 128.305 78.9236C128.732 79.4384 129.378 79.6958 130.242 79.6958C130.534 79.6958 130.815 79.6521 131.087 79.5647C131.359 79.4675 131.709 79.3218 132.136 79.1276C132.34 79.0208 132.491 78.9479 132.588 78.9091C132.685 78.8702 132.802 78.8508 132.938 78.8508C133.18 78.8508 133.384 78.9576 133.549 79.1713C133.724 79.3753 133.812 79.6278 133.812 79.9289C133.812 80.1329 133.773 80.3077 133.695 80.4534C133.627 80.5893 133.511 80.7156 133.345 80.8322C132.413 81.4829 131.33 81.8083 130.097 81.8083ZM139.757 81.8083C138.708 81.8083 137.795 81.5946 137.018 81.1672C136.251 80.7302 135.659 80.1183 135.241 79.3316C134.823 78.5351 134.615 77.6027 134.615 76.5343C134.615 75.4659 134.823 74.5384 135.241 73.7517C135.659 72.9552 136.251 72.3433 137.018 71.916C137.795 71.4886 138.708 71.275 139.757 71.275C140.806 71.275 141.714 71.4886 142.482 71.916C143.259 72.3433 143.851 72.9552 144.259 73.7517C144.677 74.5384 144.886 75.4659 144.886 76.5343C144.886 77.6027 144.677 78.5351 144.259 79.3316C143.842 80.1183 143.244 80.7302 142.467 81.1672C141.7 81.5946 140.797 81.8083 139.757 81.8083ZM139.757 79.7541C140.534 79.7541 141.141 79.4821 141.578 78.9382C142.016 78.3846 142.234 77.5833 142.234 76.5343C142.234 75.4854 142.011 74.6889 141.564 74.145C141.127 73.6011 140.525 73.3292 139.757 73.3292C138.98 73.3292 138.373 73.6011 137.936 74.145C137.499 74.6792 137.281 75.4757 137.281 76.5343C137.281 77.593 137.499 78.3943 137.936 78.9382C138.373 79.4821 138.98 79.7541 139.757 79.7541Z" fill="white"/>
<path d="M247.644 137.589C245.966 132.232 246.973 126.541 247.644 123.527C237.58 122.188 217.654 120.715 218.459 125.536C219.465 131.563 219.801 135.58 219.465 139.263C219.197 142.209 217.117 144.285 216.111 144.954C205.376 150.311 197.549 152.208 189.274 154.998L183.907 162.364L223.491 185.465L279.177 162.699C272.468 153.659 261.397 149.139 255.695 146.294C251.669 144.285 249.321 143.615 247.644 137.589Z" fill="#62443C"/>
<mask id="mask2" mask-type="alpha" maskUnits="userSpaceOnUse" x="183" y="122" width="97" height="64">
<path d="M247.644 137.589C245.966 132.232 246.973 126.541 247.644 123.527C237.58 122.188 217.654 120.715 218.459 125.536C219.465 131.563 219.801 135.58 219.465 139.263C219.197 142.209 217.117 144.285 216.111 144.954C205.376 150.311 197.549 152.208 189.274 154.998L183.907 162.364L223.491 185.465L279.177 162.699C272.468 153.659 261.397 149.139 255.695 146.294C251.669 144.285 249.321 143.615 247.644 137.589Z" fill="#62443C"/>
</mask>
<g mask="url(#mask2)">
<path d="M248.315 133.571V123.193L217.453 125.201L218.124 140.267C229.754 144.331 236.4 141.39 248.315 133.571Z" fill="#583B3D"/>
</g>
<path d="M189.274 71.2994C191.153 71.2994 192.741 73.085 193.3 73.9778C193.971 80.4505 194.373 93.1281 190.616 92.0567C185.92 90.7175 184.242 86.7 183.907 80.0041C183.572 73.3082 186.926 71.2994 189.274 71.2994Z" fill="#603D37"/>
<path d="M253.011 122.188C264.417 116.832 266.765 102.77 267.436 96.7438V65.2731L234.226 44.181L198.667 58.5772L194.642 66.947C192.037 75.6191 191.169 79.631 190.616 85.3608C190.616 85.3608 189.945 99.0874 190.952 103.775C191.958 108.462 192.629 116.162 207.389 123.193C208.462 123.728 217.117 127.545 229.529 127.21C232.75 127.21 246.302 125.536 253.011 122.188Z" fill="#62443C"/>
<mask id="mask3" mask-type="alpha" maskUnits="userSpaceOnUse" x="6" y="78" width="274" height="151">
<rect x="5.99997" y="78.3421" width="273.062" height="150.658" rx="21.9076" fill="url(#paint2_linear)"/>
</mask>
<g mask="url(#mask3)">
<path d="M289.24 190.152C287.362 173.814 281.301 164.372 278.506 161.694C259.16 171.137 248.699 173.477 230.2 176.425L223.491 183.791L218.459 176.09C204.057 172.623 197.041 168.997 189.274 154.998C171.335 170.789 168.352 189.116 169.147 229.992H285.55C287.563 223.52 291.119 206.49 289.24 190.152Z" fill="url(#paint3_linear)"/>
<path d="M266.429 185.799C265.852 208.765 265.431 220.46 263.746 229.992H254.353C256.366 225.305 263.075 193.834 263.746 190.487C264.282 187.808 265.758 186.246 266.429 185.799Z" fill="#5F75DB"/>
<path d="M181.559 192.161C185.689 205.755 187.303 213.866 189.274 229.992H180.552C180.212 215.174 180.14 207.186 181.559 192.161Z" fill="#5D8BE3"/>
</g>
<path d="M239.593 56.5684C242.666 64.8977 245.392 68.798 253.011 73.643C257.819 80.1157 267.436 93.4629 267.436 95.0699C267.436 96.6769 267.212 99.0874 267.1 100.092C276.158 100.761 280.87 95.7969 280.854 88.374C289.24 89.0436 288.905 81.6781 283.202 79.6693C293.266 71.969 291.589 64.2687 286.892 59.5816C295.95 43.8462 289.241 29.45 274.48 31.7936C272.971 21.3894 268.107 15.7234 259.049 18.7366L256.366 20.7453V17.3974C256.366 6.34913 247.308 3.33597 238.586 15.3886C237.58 -6.3731 197.661 -5.36872 200.009 20.4105C189.732 14.2952 180.217 18.067 180.217 29.7848C166.799 33.4675 166.128 51.8813 180.217 57.5728C177.351 72.305 179.211 77.6605 183.907 81.6781L191.287 80.6737C192.441 75.0121 193.18 72.019 194.642 66.9471C200.675 68.1368 205.376 66.2775 207.389 61.9252C213.092 66.2775 220.807 64.2687 222.149 56.2336C227.516 61.9252 234.561 61.9252 239.593 56.5684Z" fill="#3B2238"/>
<path fill-rule="evenodd" clip-rule="evenodd" d="M184.023 81.6622L191.287 80.6737C191.88 77.763 192.364 75.5577 192.892 73.4126C192.148 72.4897 190.808 71.2994 189.274 71.2994C186.926 71.2994 183.571 73.3082 183.907 80.0041C183.936 80.5764 183.974 81.1291 184.023 81.6622Z" fill="#603D37"/>
<path d="M187.262 78.3301C188.889 74.8679 192.322 75.4543 192.293 75.6518C191.165 80.0762 190.83 82.4012 190.616 86.3652C189.035 87.2839 184.933 83.285 187.262 78.3301Z" fill="#573335"/>
<path fill-rule="evenodd" clip-rule="evenodd" d="M272.898 66.8428C279.496 35.9832 270.305 13.3893 238.587 15.3886C258.007 21.4036 264.369 39.7655 260.747 66.7946C255.025 69.1548 250.998 74.7797 250.998 81.3433C250.998 87.7321 254.813 93.2317 260.294 95.6965C257.999 110.142 253.501 114.052 238.922 111.81C239.034 111.14 239.19 109.734 238.922 109.466C238.586 109.131 235.567 107.792 233.555 107.792C231.542 107.792 228.187 109.466 228.187 111.475C228.187 113.484 230.292 114.985 232.548 115.827C234.026 116.379 235.567 116.497 236.574 116.162C237.379 115.894 237.804 115.158 237.916 114.823C251.628 120.164 263.674 114.854 264.41 96.9044C265.178 97.0192 265.965 97.0786 266.765 97.0786C275.472 97.0786 282.531 90.0337 282.531 81.3433C282.531 74.824 278.559 69.2306 272.898 66.8428Z" fill="#F0DAB5"/>
<ellipse rx="10.3992" ry="10.3787" transform="matrix(-1 0 0 1 268.777 81.3433)" fill="#EEFFFF"/>
<path d="M226.51 86.0304C226.51 88.2492 227.516 90.0479 229.529 90.0479C230.871 90.0479 231.877 88.2492 231.877 86.0304C231.877 83.8116 230.871 81.6223 229.194 81.3432C227.516 81.0642 226.51 83.8116 226.51 86.0304Z" fill="#3B2238"/>
<path d="M202.022 86.0304C202.022 88.2492 203.028 90.0479 205.041 90.0479C206.383 90.0479 207.389 88.2492 207.389 86.0304C207.389 83.8116 206.383 81.6223 204.705 81.3432C203.028 81.0642 202.022 83.8116 202.022 86.0304Z" fill="#3B2238"/>
<path d="M239.257 77.6605C240.1 77.6124 240.391 77.3874 240.599 76.6561C234.454 68.2809 230.993 66.3792 225.839 66.6123C223.59 67.9927 223.826 71.6342 224.497 71.6342C225.168 71.6342 235.762 73.6521 239.257 77.6605Z" fill="#3B2238"/>
<path d="M210.408 75.6517C211.482 73.7769 210.408 71.7458 209.737 70.9646C207.416 69.3285 195.765 75.0899 193.635 78.3301C193.341 78.778 194.306 79.4461 194.642 79.6693C199.741 76.7231 207.277 75.7633 210.408 75.6517Z" fill="#3B2238"/>
<path d="M218.459 93.3959C218.714 91.1044 217.979 81.9755 217.522 77.0529C217.485 76.6641 217.112 76.3988 216.757 76.5621C211.576 78.9479 209.63 93.4239 209.737 94.0655C210.073 96.0743 215.299 96.0095 217.117 95.4047C217.922 95.1368 218.347 93.9539 218.459 93.3959Z" fill="#9F227E"/>
<path d="M203.699 95.4047C209.737 101.096 220.557 101.321 230.2 97.4134C231.877 99.0874 231.915 102.114 230.535 104.109C227.175 108.003 219.465 109.131 215.104 108.796C205.376 107.457 201.351 102.435 203.699 95.4047Z" fill="white"/>
<ellipse rx="4.02548" ry="4.01754" transform="matrix(-1 0 0 1 222.149 205.552)" fill="white"/>
<ellipse rx="4.02548" ry="4.01754" transform="matrix(-1 0 0 1 222.82 190.821)" fill="white"/>
<defs>
<filter id="filter0_d" x="0.845265" y="73.756" width="283.372" height="162.976" filterUnits="userSpaceOnUse" color-interpolation-filters="sRGB">
<feFlood flood-opacity="0" result="BackgroundImageFix"/>
<feColorMatrix in="SourceAlpha" type="matrix" values="0 0 0 0 0 0 0 0 0 0 0 0 0 0 0 0 0 0 127 0" result="hardAlpha"/>
<feOffset dy="2.57737"/>
<feGaussianBlur stdDeviation="2.57737"/>
<feColorMatrix type="matrix" values="0 0 0 0 0 0 0 0 0 0 0 0 0 0 0 0 0 0 0.5 0"/>
<feBlend mode="normal" in2="BackgroundImageFix" result="effect1_dropShadow"/>
<feBlend mode="normal" in="SourceGraphic" in2="effect1_dropShadow" result="shape"/>
</filter>
<linearGradient id="paint0_linear" x1="279.062" y1="138.27" x2="6" y2="138.27" gradientUnits="userSpaceOnUse">
<stop stop-color="#D5D5D5"/>
<stop offset="1" stop-color="#EFE9F4"/>
</linearGradient>
<linearGradient id="paint1_linear" x1="279.062" y1="140.279" x2="6" y2="140.279" gradientUnits="userSpaceOnUse">
<stop stop-color="#D5D5D5"/>
<stop offset="1" stop-color="#EFE9F4"/>
</linearGradient>
<linearGradient id="paint2_linear" x1="279.062" y1="140.279" x2="5.99997" y2="140.279" gradientUnits="userSpaceOnUse">
<stop stop-color="#D5D5D5"/>
<stop offset="1" stop-color="#EFE9F4"/>
</linearGradient>
<linearGradient id="paint3_linear" x1="171.495" y1="192.83" x2="289.907" y2="204.258" gradientUnits="userSpaceOnUse">
<stop stop-color="#5EBBFB"/>
<stop offset="1" stop-color="#6585E8"/>
</linearGradient>
</defs>
</svg>
