<svg width="285" height="229" viewBox="0 0 285 229" fill="none" xmlns="http://www.w3.org/2000/svg">
<g filter="url(#filter0_d)">
<rect x="6" y="74.2725" width="267.313" height="144.977" rx="21.9076" fill="url(#paint0_linear)"/>
<mask id="mask0" mask-type="alpha" maskUnits="userSpaceOnUse" x="6" y="76" width="268" height="146">
<rect x="6" y="76.2055" width="267.313" height="144.977" rx="21.9076" fill="url(#paint1_linear)"/>
</mask>
<g mask="url(#mask0)">
<path d="M289.772 122.598C185.457 184.873 121.577 201.431 -3.08069 194.442V240.513H289.772V122.598Z" fill="#C4C4C4"/>
</g>
</g>
<rect x="22.4197" y="63.963" width="129.388" height="32.8614" rx="11.5982" fill="#C5C5C5"/>
<rect x="17.8222" y="56.8753" width="138.583" height="36.0831" rx="18.0416" fill="#664CBA"/>
<g opacity="0.05">
<mask id="mask1" mask-type="alpha" maskUnits="userSpaceOnUse" x="17" y="56" width="140" height="37">
<rect x="17.8222" y="56.8753" width="138.583" height="36.0831" rx="18.0416" fill="#664CBA"/>
</mask>
<g mask="url(#mask1)">
<path d="M159.689 69.1178C142.284 53.6536 50.6616 89.7367 14.8666 76.2055C-20.9284 62.6744 14.8666 97.1466 14.8666 97.1466H159.689C159.689 97.1466 177.094 84.582 159.689 69.1178Z" fill="white"/>
</g>
</g>
<path d="M32.5594 80.0678C32.1612 80.0678 31.8407 79.9464 31.5978 79.7036C31.355 79.4608 31.2336 79.1403 31.2336 78.7421V70.9477C31.2336 70.5495 31.3405 70.2435 31.5541 70.0299C31.7678 69.8162 32.0738 69.7094 32.472 69.7094H37.3671C37.8042 69.7094 38.1247 69.7968 38.3287 69.9716C38.5326 70.1367 38.6346 70.4038 38.6346 70.7729C38.6346 71.1322 38.5278 71.3945 38.3141 71.5596C38.1101 71.7247 37.7945 71.8073 37.3671 71.8073H33.8706V73.7012H37.0758C37.5031 73.7012 37.8188 73.7886 38.0227 73.9635C38.2364 74.1383 38.3432 74.4054 38.3432 74.7648C38.3432 75.1241 38.2364 75.3864 38.0227 75.5515C37.8188 75.7166 37.5031 75.7992 37.0758 75.7992H33.8706V78.7421C33.8706 79.15 33.7492 79.4754 33.5064 79.7182C33.2733 79.9513 32.9576 80.0678 32.5594 80.0678ZM48.722 78.3341C48.8094 78.5187 48.8531 78.6984 48.8531 78.8732C48.8531 79.1937 48.722 79.4657 48.4598 79.6891C48.2072 79.9124 47.9159 80.0241 47.5856 80.0241C47.3622 80.0241 47.1583 79.9659 46.9737 79.8493C46.7892 79.7328 46.6435 79.5579 46.5367 79.3248L45.8811 77.8534H41.1607L40.4906 79.3248C40.3837 79.5579 40.2332 79.7328 40.0389 79.8493C39.8544 79.9659 39.6504 80.0241 39.427 80.0241C39.0968 80.0241 38.7957 79.9124 38.5238 79.6891C38.2615 79.4657 38.1304 79.1937 38.1304 78.8732C38.1304 78.6984 38.1741 78.5187 38.2615 78.3341L42.1077 70.4378C42.234 70.1756 42.4185 69.9764 42.6613 69.8405C42.9139 69.6948 43.1907 69.6219 43.4918 69.6219C43.7831 69.6219 44.0551 69.6948 44.3076 69.8405C44.5601 69.9764 44.7495 70.1756 44.8758 70.4378L48.722 78.3341ZM42.064 75.8429H44.9778L43.5209 72.594L42.064 75.8429ZM51.2095 79.9804C50.8113 79.9804 50.5054 79.8736 50.2917 79.6599C50.078 79.4462 49.9712 79.1354 49.9712 78.7275V70.9477C49.9712 70.5495 50.0877 70.2338 50.3208 70.0007C50.5636 69.7579 50.889 69.6365 51.2969 69.6365C51.7146 69.6365 52.0448 69.7579 52.2876 70.0007C52.5304 70.2338 52.6518 70.5495 52.6518 70.9477V77.8097H56.0027C56.8477 77.8097 57.2702 78.1739 57.2702 78.9023C57.2702 79.2714 57.1634 79.5434 56.9497 79.7182C56.7457 79.893 56.43 79.9804 56.0027 79.9804H51.2095ZM59.5468 79.9804C59.1486 79.9804 58.8426 79.8736 58.629 79.6599C58.4153 79.4462 58.3085 79.1403 58.3085 78.7421V70.9477C58.3085 70.5495 58.4153 70.2435 58.629 70.0299C58.8426 69.8162 59.1486 69.7094 59.5468 69.7094H64.5877C65.0053 69.7094 65.321 69.7968 65.5346 69.9716C65.7483 70.1464 65.8551 70.3989 65.8551 70.7292C65.8551 71.4285 65.4326 71.7781 64.5877 71.7781H60.9163V73.7304H64.2963C65.1413 73.7304 65.5638 74.0752 65.5638 74.7648C65.5638 75.095 65.4569 75.3475 65.2433 75.5223C65.0296 75.6972 64.7139 75.7846 64.2963 75.7846H60.9163V77.9116H64.5877C65.4326 77.9116 65.8551 78.2613 65.8551 78.9606C65.8551 79.2908 65.7483 79.5434 65.5346 79.7182C65.321 79.893 65.0053 79.9804 64.5877 79.9804H59.5468ZM76.0361 80.1116C75.0065 80.1116 74.1033 79.8979 73.3263 79.4705C72.559 79.0432 71.9616 78.4313 71.5343 77.6348C71.1166 76.8384 70.9078 75.906 70.9078 74.8376C70.9078 73.7789 71.1166 72.8514 71.5343 72.0549C71.9616 71.2585 72.559 70.6466 73.3263 70.2193C74.1033 69.7919 75.0065 69.5782 76.0361 69.5782C77.2696 69.5782 78.3525 69.9036 79.2849 70.5543C79.4501 70.6709 79.5666 70.7972 79.6346 70.9331C79.7123 71.0691 79.7512 71.2439 79.7512 71.4576C79.7512 71.7587 79.6637 72.0161 79.4889 72.2298C79.3238 72.4337 79.1198 72.5357 78.877 72.5357C78.7313 72.5357 78.6002 72.5163 78.4837 72.4774C78.3671 72.4289 78.2311 72.356 78.0757 72.2589C77.7358 72.0549 77.4153 71.9093 77.1142 71.8218C76.8131 71.7344 76.5023 71.6907 76.1818 71.6907C75.3173 71.6907 74.6715 71.953 74.2441 72.4774C73.8265 72.9922 73.6176 73.7789 73.6176 74.8376C73.6176 75.906 73.8265 76.7024 74.2441 77.2269C74.6715 77.7417 75.3173 77.9991 76.1818 77.9991C76.4731 77.9991 76.7548 77.9554 77.0268 77.8679C77.2987 77.7708 77.6484 77.6251 78.0757 77.4309C78.2797 77.324 78.4302 77.2512 78.5274 77.2123C78.6245 77.1735 78.741 77.1541 78.877 77.1541C79.1198 77.1541 79.3238 77.2609 79.4889 77.4746C79.6637 77.6785 79.7512 77.9311 79.7512 78.2322C79.7512 78.4361 79.7123 78.611 79.6346 78.7566C79.5666 78.8926 79.4501 79.0189 79.2849 79.1354C78.3525 79.7862 77.2696 80.1116 76.0361 80.1116ZM85.6969 80.1116C84.6479 80.1116 83.7349 79.8979 82.9579 79.4705C82.1906 79.0335 81.5981 78.4216 81.1805 77.6348C80.7629 76.8384 80.554 75.906 80.554 74.8376C80.554 73.7692 80.7629 72.8417 81.1805 72.0549C81.5981 71.2585 82.1906 70.6466 82.9579 70.2193C83.7349 69.7919 84.6479 69.5782 85.6969 69.5782C86.7458 69.5782 87.6539 69.7919 88.4212 70.2193C89.1983 70.6466 89.7907 71.2585 90.1987 72.0549C90.6163 72.8417 90.8251 73.7692 90.8251 74.8376C90.8251 75.906 90.6163 76.8384 90.1987 77.6348C89.781 78.4216 89.1837 79.0335 88.4067 79.4705C87.6394 79.8979 86.7361 80.1116 85.6969 80.1116ZM85.6969 78.0573C86.4739 78.0573 87.0809 77.7854 87.518 77.2415C87.955 76.6879 88.1736 75.8866 88.1736 74.8376C88.1736 73.7886 87.9502 72.9922 87.5034 72.4483C87.0663 71.9044 86.4642 71.6324 85.6969 71.6324C84.9199 71.6324 84.3128 71.9044 83.8757 72.4483C83.4387 72.9825 83.2201 73.7789 83.2201 74.8376C83.2201 75.8963 83.4387 76.6976 83.8757 77.2415C84.3128 77.7854 84.9199 78.0573 85.6969 78.0573ZM100.308 69.6365C100.677 69.6365 100.978 69.7579 101.211 70.0007C101.454 70.2435 101.575 70.5592 101.575 70.9477V78.7421C101.575 79.1403 101.459 79.4608 101.226 79.7036C100.993 79.9464 100.692 80.0678 100.323 80.0678C99.8855 80.0678 99.5553 79.9222 99.3319 79.6308L94.9029 74.1092V78.7421C94.9029 79.1403 94.7912 79.4608 94.5678 79.7036C94.3445 79.9464 94.0434 80.0678 93.6646 80.0678C93.2955 80.0678 92.9944 79.9464 92.7613 79.7036C92.5282 79.4608 92.4116 79.1403 92.4116 78.7421V70.9477C92.4116 70.5592 92.5282 70.2435 92.7613 70.0007C92.9944 69.7579 93.2955 69.6365 93.6646 69.6365C94.0822 69.6365 94.4076 69.7822 94.6407 70.0736L99.0696 75.5806V70.9477C99.0696 70.5495 99.1813 70.2338 99.4047 70.0007C99.6378 69.7579 99.9389 69.6365 100.308 69.6365ZM108.319 80.1116C107.27 80.1116 106.357 79.8979 105.58 79.4705C104.812 79.0335 104.22 78.4216 103.802 77.6348C103.384 76.8384 103.176 75.906 103.176 74.8376C103.176 73.7692 103.384 72.8417 103.802 72.0549C104.22 71.2585 104.812 70.6466 105.58 70.2193C106.357 69.7919 107.27 69.5782 108.319 69.5782C109.367 69.5782 110.276 69.7919 111.043 70.2193C111.82 70.6466 112.412 71.2585 112.82 72.0549C113.238 72.8417 113.447 73.7692 113.447 74.8376C113.447 75.906 113.238 76.8384 112.82 77.6348C112.403 78.4216 111.805 79.0335 111.028 79.4705C110.261 79.8979 109.358 80.1116 108.319 80.1116ZM108.319 78.0573C109.096 78.0573 109.703 77.7854 110.14 77.2415C110.577 76.6879 110.795 75.8866 110.795 74.8376C110.795 73.7886 110.572 72.9922 110.125 72.4483C109.688 71.9044 109.086 71.6324 108.319 71.6324C107.541 71.6324 106.934 71.9044 106.497 72.4483C106.06 72.9825 105.842 73.7789 105.842 74.8376C105.842 75.8963 106.06 76.6976 106.497 77.2415C106.934 77.7854 107.541 78.0573 108.319 78.0573ZM118.894 80.1116C118.117 80.1116 117.393 80.029 116.723 79.8639C116.063 79.6891 115.519 79.4511 115.092 79.15C114.926 79.0237 114.805 78.8926 114.727 78.7566C114.659 78.6207 114.625 78.4458 114.625 78.2322C114.625 77.9408 114.713 77.6883 114.888 77.4746C115.062 77.2609 115.266 77.1541 115.499 77.1541C115.626 77.1541 115.747 77.1735 115.864 77.2123C115.98 77.2512 116.126 77.324 116.301 77.4309C116.699 77.6543 117.092 77.8145 117.481 77.9116C117.879 78.0088 118.326 78.0573 118.821 78.0573C119.394 78.0573 119.826 77.9748 120.118 77.8097C120.419 77.6348 120.569 77.3823 120.569 77.0521C120.569 76.8287 120.429 76.6393 120.147 76.4839C119.875 76.3188 119.351 76.1585 118.574 76.0031C117.612 75.7992 116.859 75.5563 116.315 75.2747C115.771 74.993 115.388 74.6628 115.164 74.284C114.951 73.8955 114.844 73.4293 114.844 72.8854C114.844 72.2638 115.028 71.7004 115.398 71.1954C115.767 70.6903 116.272 70.297 116.913 70.0153C117.563 69.7239 118.292 69.5782 119.098 69.5782C119.807 69.5782 120.438 69.6559 120.992 69.8113C121.546 69.9667 122.051 70.2096 122.507 70.5398C122.682 70.666 122.803 70.802 122.871 70.9477C122.949 71.0837 122.988 71.2537 122.988 71.4576C122.988 71.749 122.9 72.0015 122.726 72.2152C122.561 72.4289 122.361 72.5357 122.128 72.5357C122.002 72.5357 121.886 72.5211 121.779 72.492C121.672 72.4532 121.521 72.3755 121.327 72.2589C121.278 72.2298 121.138 72.1569 120.905 72.0404C120.681 71.9141 120.414 71.817 120.103 71.749C119.802 71.6713 119.472 71.6324 119.113 71.6324C118.617 71.6324 118.219 71.7296 117.918 71.9238C117.617 72.1084 117.466 72.356 117.466 72.6668C117.466 72.8514 117.52 73.0019 117.627 73.1185C117.733 73.235 117.932 73.3516 118.224 73.4681C118.515 73.575 118.947 73.6867 119.521 73.8032C120.453 74.0072 121.186 74.2548 121.72 74.5462C122.255 74.8279 122.633 75.1581 122.857 75.5369C123.08 75.9157 123.192 76.3625 123.192 76.8773C123.192 77.5183 123.012 78.0865 122.653 78.5818C122.293 79.0674 121.788 79.4462 121.138 79.7182C120.497 79.9804 119.749 80.1116 118.894 80.1116ZM129.574 80.1116C128.544 80.1116 127.641 79.8979 126.864 79.4705C126.097 79.0432 125.5 78.4313 125.072 77.6348C124.655 76.8384 124.446 75.906 124.446 74.8376C124.446 73.7789 124.655 72.8514 125.072 72.0549C125.5 71.2585 126.097 70.6466 126.864 70.2193C127.641 69.7919 128.544 69.5782 129.574 69.5782C130.807 69.5782 131.89 69.9036 132.823 70.5543C132.988 70.6709 133.105 70.7972 133.172 70.9331C133.25 71.0691 133.289 71.2439 133.289 71.4576C133.289 71.7587 133.202 72.0161 133.027 72.2298C132.862 72.4337 132.658 72.5357 132.415 72.5357C132.269 72.5357 132.138 72.5163 132.022 72.4774C131.905 72.4289 131.769 72.356 131.614 72.2589C131.274 72.0549 130.953 71.9093 130.652 71.8218C130.351 71.7344 130.04 71.6907 129.72 71.6907C128.855 71.6907 128.209 71.953 127.782 72.4774C127.364 72.9922 127.156 73.7789 127.156 74.8376C127.156 75.906 127.364 76.7024 127.782 77.2269C128.209 77.7417 128.855 77.9991 129.72 77.9991C130.011 77.9991 130.293 77.9554 130.565 77.8679C130.837 77.7708 131.186 77.6251 131.614 77.4309C131.818 77.324 131.968 77.2512 132.065 77.2123C132.162 77.1735 132.279 77.1541 132.415 77.1541C132.658 77.1541 132.862 77.2609 133.027 77.4746C133.202 77.6785 133.289 77.9311 133.289 78.2322C133.289 78.4361 133.25 78.611 133.172 78.7566C133.105 78.8926 132.988 79.0189 132.823 79.1354C131.89 79.7862 130.807 80.1116 129.574 80.1116ZM139.235 80.1116C138.186 80.1116 137.273 79.8979 136.496 79.4705C135.728 79.0335 135.136 78.4216 134.718 77.6348C134.301 76.8384 134.092 75.906 134.092 74.8376C134.092 73.7692 134.301 72.8417 134.718 72.0549C135.136 71.2585 135.728 70.6466 136.496 70.2193C137.273 69.7919 138.186 69.5782 139.235 69.5782C140.284 69.5782 141.192 69.7919 141.959 70.2193C142.736 70.6466 143.329 71.2585 143.737 72.0549C144.154 72.8417 144.363 73.7692 144.363 74.8376C144.363 75.906 144.154 76.8384 143.737 77.6348C143.319 78.4216 142.722 79.0335 141.945 79.4705C141.177 79.8979 140.274 80.1116 139.235 80.1116ZM139.235 78.0573C140.012 78.0573 140.619 77.7854 141.056 77.2415C141.493 76.6879 141.711 75.8866 141.711 74.8376C141.711 73.7886 141.488 72.9922 141.041 72.4483C140.604 71.9044 140.002 71.6324 139.235 71.6324C138.458 71.6324 137.851 71.9044 137.414 72.4483C136.977 72.9825 136.758 73.7789 136.758 74.8376C136.758 75.8963 136.977 76.6976 137.414 77.2415C137.851 77.7854 138.458 78.0573 139.235 78.0573Z" fill="white"/>
<path d="M242.556 133.218C240.914 128.063 241.9 122.587 242.556 119.687C232.705 118.398 213.198 116.981 213.986 121.62C214.971 127.419 215.3 131.285 214.971 134.829C214.709 137.664 212.673 139.662 211.687 140.306C201.179 145.461 193.516 147.286 185.416 149.971L180.161 157.059L218.912 179.289L273.426 157.381C266.858 148.682 256.021 144.333 250.438 141.595C246.497 139.662 244.198 139.017 242.556 133.218Z" fill="#62443C"/>
<mask id="mask2" mask-type="alpha" maskUnits="userSpaceOnUse" x="180" y="118" width="94" height="62">
<path d="M242.556 133.218C240.914 128.063 241.9 122.587 242.556 119.687C232.705 118.398 213.198 116.981 213.986 121.62C214.971 127.419 215.3 131.285 214.971 134.829C214.709 137.664 212.673 139.662 211.687 140.306C201.179 145.461 193.516 147.286 185.416 149.971L180.161 157.059L218.912 179.289L273.426 157.381C266.858 148.682 256.021 144.333 250.438 141.595C246.497 139.662 244.198 139.017 242.556 133.218Z" fill="#62443C"/>
</mask>
<g mask="url(#mask2)">
<path d="M243.213 129.352V119.365L213.001 121.298L213.658 135.796C225.043 139.706 231.549 136.876 243.213 129.352Z" fill="#583B3D"/>
</g>
<path d="M185.416 69.4284C187.255 69.4284 188.809 71.1466 189.357 72.0058C190.013 78.2344 190.408 90.4339 186.73 89.403C182.132 88.1143 180.49 84.2483 180.162 77.8048C179.833 71.3614 183.117 69.4284 185.416 69.4284Z" fill="#603D37"/>
<path d="M247.811 118.398C258.976 113.244 261.275 99.7124 261.932 93.9134V63.6293L229.421 43.3325L194.611 57.1859L190.67 65.2402C188.12 73.5852 187.271 77.4458 186.729 82.9595C186.729 82.9595 186.073 96.1686 187.058 100.679C188.043 105.189 188.7 112.599 203.149 119.365C204.2 119.88 212.673 123.553 224.823 123.231C227.976 123.231 241.243 121.62 247.811 118.398Z" fill="#62443C"/>
<mask id="mask3" mask-type="alpha" maskUnits="userSpaceOnUse" x="6" y="76" width="268" height="146">
<rect x="6" y="76.2056" width="267.313" height="144.977" rx="21.9076" fill="url(#paint2_linear)"/>
</mask>
<g mask="url(#mask3)">
<path d="M283.277 183.799C281.438 168.077 275.505 158.992 272.769 156.415C253.83 165.502 243.589 167.753 225.48 170.59L218.912 177.678L213.986 170.268C199.887 166.931 193.019 163.442 185.416 149.971C167.854 165.166 164.934 182.803 165.712 222.137H279.665C281.635 215.909 285.116 199.521 283.277 183.799Z" fill="url(#paint3_linear)"/>
<path d="M260.947 179.611C260.382 201.711 259.969 212.964 258.319 222.137H249.124C251.095 217.627 257.663 187.343 258.319 184.121C258.845 181.544 260.29 180.04 260.947 179.611Z" fill="#5F75DB"/>
<path d="M177.863 185.732C181.907 198.814 183.486 206.619 185.416 222.137H176.878C176.544 207.878 176.474 200.191 177.863 185.732Z" fill="#5D8BE3"/>
</g>
<path d="M234.675 55.2529C237.683 63.2681 240.352 67.0213 247.811 71.6836C252.518 77.9122 261.932 90.7561 261.932 92.3025C261.932 93.849 261.713 96.1686 261.603 97.1351C270.47 97.7794 275.083 93.0022 275.068 85.8591C283.278 86.5035 282.949 79.4157 277.366 77.4827C287.218 70.0727 285.576 62.6628 280.979 58.1524C289.845 43.0104 283.278 29.157 268.828 31.4122C267.351 21.4004 262.589 15.948 253.722 18.8476L251.095 20.7806V17.5589C251.095 6.92725 242.228 4.02771 233.69 15.6259C232.705 -5.31525 193.626 -4.34874 195.924 20.4584C185.864 14.5737 176.549 18.2032 176.549 29.4792C163.413 33.0231 162.757 50.7425 176.549 56.2194C173.743 70.3961 175.564 75.5497 180.161 79.4157L187.386 78.4492C188.516 73.0011 189.24 70.1208 190.67 65.2402C196.577 66.385 201.179 64.5958 203.149 60.4076C208.732 64.5958 216.285 62.6628 217.598 54.9307C222.853 60.4076 229.749 60.4076 234.675 55.2529Z" fill="#3B2238"/>
<path fill-rule="evenodd" clip-rule="evenodd" d="M180.275 79.4004L187.386 78.4492C187.967 75.6483 188.441 73.5261 188.958 71.4619C188.229 70.5738 186.917 69.4284 185.416 69.4284C183.117 69.4284 179.833 71.3614 180.161 77.8048C180.19 78.3555 180.227 78.8874 180.275 79.4004Z" fill="#603D37"/>
<path d="M183.446 76.194C185.038 72.8623 188.4 73.4266 188.371 73.6166C187.267 77.8743 186.939 80.1116 186.729 83.9261C185.181 84.8101 181.166 80.962 183.446 76.194Z" fill="#573335"/>
<path fill-rule="evenodd" clip-rule="evenodd" d="M267.279 65.1398C273.738 35.4439 264.74 13.7019 233.69 15.6259C252.701 21.4141 258.929 39.0835 255.384 65.0935C249.782 67.3646 245.841 72.7775 245.841 79.0935C245.841 85.2414 249.575 90.5336 254.94 92.9056C252.693 106.806 248.29 110.569 234.018 108.411C234.128 107.767 234.281 106.414 234.018 106.156C233.69 105.834 230.734 104.545 228.764 104.545C226.794 104.545 223.51 106.156 223.51 108.089C223.51 110.022 225.571 111.467 227.779 112.277C229.225 112.808 230.734 112.921 231.72 112.599C232.508 112.342 232.924 111.633 233.033 111.311C246.457 116.45 258.249 111.341 258.97 94.0678C259.722 94.1783 260.492 94.2355 261.275 94.2355C269.799 94.2355 276.71 87.4562 276.71 79.0935C276.71 72.82 272.821 67.4376 267.279 65.1398Z" fill="#F0DAB5"/>
<ellipse rx="10.1802" ry="9.9873" transform="matrix(-1 0 0 1 263.245 79.0935)" fill="#EEFFFF"/>
<path d="M221.868 83.6039C221.868 85.7391 222.853 87.47 224.823 87.47C226.137 87.47 227.122 85.7391 227.122 83.6039C227.122 81.4687 226.137 79.362 224.495 79.0935C222.853 78.825 221.868 81.4687 221.868 83.6039Z" fill="#3B2238"/>
<path d="M197.895 83.6039C197.895 85.7391 198.88 87.47 200.851 87.47C202.164 87.47 203.149 85.7391 203.149 83.6039C203.149 81.4687 202.164 79.362 200.522 79.0935C198.88 78.825 197.895 81.4687 197.895 83.6039Z" fill="#3B2238"/>
<path d="M234.347 75.5497C235.172 75.5033 235.456 75.2868 235.66 74.5831C229.644 66.5237 226.256 64.6937 221.211 64.918C219.01 66.2464 219.241 69.7506 219.897 69.7506C220.554 69.7506 230.925 71.6923 234.347 75.5497Z" fill="#3B2238"/>
<path d="M206.105 73.6166C207.156 71.8125 206.105 69.8579 205.448 69.1062C203.176 67.5318 191.77 73.0759 189.685 76.194C189.397 76.625 190.342 77.2679 190.67 77.4827C195.662 74.6476 203.04 73.724 206.105 73.6166Z" fill="#3B2238"/>
<path d="M213.986 90.6917C214.235 88.4903 213.519 79.7311 213.071 74.9887C213.034 74.6014 212.662 74.3364 212.308 74.498C207.246 76.8099 205.343 90.719 205.448 91.336C205.776 93.269 210.893 93.2067 212.673 92.6247C213.461 92.367 213.877 91.2286 213.986 90.6917Z" fill="#9F227E"/>
<path d="M199.537 92.6247C205.448 98.1016 216.04 98.3181 225.48 94.5577C227.122 96.1686 227.159 99.0815 225.808 101.001C222.519 104.748 214.971 105.834 210.702 105.512C201.179 104.223 197.238 99.3903 199.537 92.6247Z" fill="white"/>
<ellipse rx="3.94074" ry="3.86605" transform="matrix(-1 0 0 1 217.599 198.619)" fill="white"/>
<ellipse rx="3.94074" ry="3.86605" transform="matrix(-1 0 0 1 218.255 184.443)" fill="white"/>
<defs>
<filter id="filter0_d" x="0.845265" y="71.6951" width="277.623" height="157.219" filterUnits="userSpaceOnUse" color-interpolation-filters="sRGB">
<feFlood flood-opacity="0" result="BackgroundImageFix"/>
<feColorMatrix in="SourceAlpha" type="matrix" values="0 0 0 0 0 0 0 0 0 0 0 0 0 0 0 0 0 0 127 0"/>
<feOffset dy="2.57737"/>
<feGaussianBlur stdDeviation="2.57737"/>
<feColorMatrix type="matrix" values="0 0 0 0 0 0 0 0 0 0 0 0 0 0 0 0 0 0 0.5 0"/>
<feBlend mode="normal" in2="BackgroundImageFix" result="effect1_dropShadow"/>
<feBlend mode="normal" in="SourceGraphic" in2="effect1_dropShadow" result="shape"/>
</filter>
<linearGradient id="paint0_linear" x1="273.313" y1="133.874" x2="6" y2="133.874" gradientUnits="userSpaceOnUse">
<stop stop-color="#D5D5D5"/>
<stop offset="1" stop-color="#EFE9F4"/>
</linearGradient>
<linearGradient id="paint1_linear" x1="273.313" y1="135.807" x2="6" y2="135.807" gradientUnits="userSpaceOnUse">
<stop stop-color="#D5D5D5"/>
<stop offset="1" stop-color="#EFE9F4"/>
</linearGradient>
<linearGradient id="paint2_linear" x1="273.313" y1="135.807" x2="6" y2="135.807" gradientUnits="userSpaceOnUse">
<stop stop-color="#D5D5D5"/>
<stop offset="1" stop-color="#EFE9F4"/>
</linearGradient>
<linearGradient id="paint3_linear" x1="168.011" y1="186.376" x2="283.893" y2="197.753" gradientUnits="userSpaceOnUse">
<stop stop-color="#5EBBFB"/>
<stop offset="1" stop-color="#6585E8"/>
</linearGradient>
</defs>
</svg>
