<?xml version="1.0" encoding="UTF-8"?>
<svg width="83.922mm" height="83.922mm" version="1.1" viewBox="0 0 83.922 83.922" xmlns="http://www.w3.org/2000/svg" xmlns:cc="http://creativecommons.org/ns#" xmlns:dc="http://purl.org/dc/elements/1.1/" xmlns:rdf="http://www.w3.org/1999/02/22-rdf-syntax-ns#" xmlns:xlink="http://www.w3.org/1999/xlink">
 <defs>
  <linearGradient id="linearGradient1100">
   <stop stop-color="#06ec00" offset="0"/>
   <stop stop-color="#008000" offset="1"/>
  </linearGradient>
  <linearGradient id="linearGradient1369" x1="66.016" x2="111.78" y1="95.639" y2="95.639" gradientTransform="translate(16.764 51.293)" gradientUnits="userSpaceOnUse" xlink:href="#linearGradient1367"/>
  <linearGradient id="linearGradient1367">
   <stop stop-color="#06f100" offset="0"/>
   <stop stop-color="#007b00" offset="1"/>
  </linearGradient>
  <linearGradient id="linearGradient1381" x1="66.016" x2="111.78" y1="95.639" y2="95.639" gradientTransform="translate(16.235 51.293)" gradientUnits="userSpaceOnUse" xlink:href="#linearGradient1367"/>
  <linearGradient id="linearGradient1808" x1="83.357" x2="126.49" y1="147.67" y2="147.67" gradientUnits="userSpaceOnUse" xlink:href="#linearGradient1367"/>
  <linearGradient id="linearGradient2136" x1="83.945" x2="126.37" y1="148.36" y2="148.36" gradientTransform="matrix(3.7795 0 0 3.7795 -.99906 1.1919)" gradientUnits="userSpaceOnUse" xlink:href="#linearGradient1367"/>
  <linearGradient id="linearGradient911" x1="318.88" x2="491.62" y1="559.32" y2="559.32" gradientTransform="matrix(.25523 .069727 -.069727 .25523 40.514 -20.14)" gradientUnits="userSpaceOnUse" xlink:href="#linearGradient1367"/>
  <linearGradient id="linearGradient1068" x1="76.1" x2="133.77" y1="147.19" y2="147.19" gradientUnits="userSpaceOnUse" xlink:href="#linearGradient1100"/>
  <linearGradient id="linearGradient1070" x1="133.52" x2="75.844" y1="147.19" y2="147.19" gradientUnits="userSpaceOnUse" xlink:href="#linearGradient1100"/>
  <linearGradient id="linearGradient1072" x1="80.122" x2="130.1" y1="152.71" y2="152.71" gradientUnits="userSpaceOnUse">
   <stop stop-color="#06ec00" offset="0"/>
   <stop stop-color="#008000" offset="1"/>
  </linearGradient>
 </defs>
 <metadata>
  <rdf:RDF>
   <cc:Work rdf:about="">
    <dc:format>image/svg+xml</dc:format>
    <dc:type rdf:resource="http://purl.org/dc/dcmitype/StillImage"/>
    <dc:title/>
   </cc:Work>
  </rdf:RDF>
 </metadata>
 <g transform="translate(-63.039 -106.54)" display="none" style="mix-blend-mode:normal">
  <g display="inline">
   <g transform="translate(.4082 -.54166)" display="inline" fill="none" stroke-linecap="round" stroke-linejoin="round" stroke-width="2" style="mix-blend-mode:normal">
    <g stroke="url(#linearGradient1369)">
     <circle cx="119.44" cy="158.03" r="3.6624" display="inline" stop-color="#000000" style="font-variation-settings:normal;mix-blend-mode:normal;paint-order:markers fill stroke"/>
     <circle cx="100.39" cy="158.03" r="3.6624" display="inline" stop-color="#000000" style="font-variation-settings:normal;mix-blend-mode:normal;paint-order:markers fill stroke"/>
     <path d="m96.716 141.57h-11.619" display="inline" style="mix-blend-mode:normal"/>
     <path d="m95.168 146.93h-12.388" display="inline" style="mix-blend-mode:normal"/>
     <path d="m93.331 152.29-9.1102 0.0236" display="inline" style="mix-blend-mode:normal"/>
     <path d="m113.79 138.93h6.3988l3.9276 7.0184" display="inline" style="mix-blend-mode:normal"/>
    </g>
    <path d="m90.376 136.39h22.64v9.5604h11.096l2.2909 4.1097v8.059l-3.1014-6e-5" stroke="url(#linearGradient1381)" style="mix-blend-mode:normal;paint-order:markers fill stroke"/>
    <path d="m96.461 158.2h-5.5496" stroke="url(#linearGradient1369)"/>
    <path d="m115.48 158.2h-11.137" stroke="url(#linearGradient1369)"/>
   </g>
  </g>
 </g>
 <g transform="translate(-63.039 -106.54)">
  <g>
   <g transform="translate(.26428 -.3152)" fill="none" stroke-linecap="round" stroke-linejoin="round">
    <path transform="scale(.26458)" d="m340.74 516.34c-12.853 0-23.201 10.348-23.201 23.201v9.3828a13.525 13.525 0 0 1 0.0391 0 13.525 13.525 0 0 1 13.525 13.523 13.525 13.525 0 0 1-13.525 13.525 13.525 13.525 0 0 1-0.0391 0v9.3828c0 12.853 10.348 23.199 23.201 23.199h110.22c12.853 0 23.201-10.346 23.201-23.199v-9.3867a13.525 13.525 0 0 1-0.28711 4e-3 13.525 13.525 0 0 1-13.523-13.525 13.525 13.525 0 0 1 13.523-13.523 13.525 13.525 0 0 1 0.28711 2e-3v-9.3848c0-12.853-10.348-23.201-23.201-23.201z" stop-color="#000000" stroke="url(#linearGradient2136)" stroke-width="7.5591" style="font-variation-settings:normal;paint-order:stroke fill markers"/>
    <g stroke="url(#linearGradient1808)" stroke-width="2">
     <path d="m109.02 141.87-7.5427 13.064"/>
     <circle cx="100" cy="144.17" r="2.2099" stop-color="#000000" style="font-variation-settings:normal;paint-order:markers fill stroke"/>
     <circle cx="110.5" cy="152.64" r="2.2099" stop-color="#000000" style="font-variation-settings:normal;paint-order:markers fill stroke"/>
    </g>
   </g>
  </g>
 </g>
 <g transform="translate(-63.039 -106.54)" display="none">
  <g display="inline">
   <path d="m85.682 140.51c0.38411 12.679 10.704 28.579 22.451 30.197 11.224 1.6941 14.679-3.2799 15.166-4.9541 0.52915-1.8196 3.4064-9.1581-3.714-11.506-3.8388-1.2658-9.5025 5.3359-9.5025 5.3359-10.412-2.5981-12.815-11.681-12.082-13.374 0 0 4.4434-2.3589 5.1623-4.6825 1.4646-4.7341 1.938-11.044-3.6219-15.058-7.4964-3.2632-13.172 9.4266-13.858 14.042z" fill="none" stroke="url(#linearGradient911)" stroke-linecap="round" stroke-linejoin="round" stroke-width="2"/>
  </g>
 </g>
 <g transform="translate(-63.039 -106.54)" display="none">
  <g fill="none" stroke-linecap="round" stroke-linejoin="round">
   <g transform="matrix(.8666 0 0 .8666 14.174 25.158)" stroke="url(#linearGradient1068)" stroke-width="2.3079">
    <path d="m89.32 156.79h-3.5455c-3.8897 0-7.0211-2.7982-7.0211-6.274v-6.03c0-3.4758 3.1314-6.274 7.0211-6.274h3.5455" stop-color="#000000" style="paint-order:stroke fill markers"/>
    <path d="m89.784 134.44v26.123"/>
   </g>
   <g transform="matrix(-.8666 0 0 .8666 195.83 25.158)" stroke="url(#linearGradient1070)" stroke-width="2.3079">
    <path d="m89.32 156.79h-3.5455c-3.8897 0-7.0211-2.7982-7.0211-6.274v-6.03c0-3.4758 3.1314-6.274 7.0211-6.274h3.5455" stop-color="#000000" style="paint-order:stroke fill markers"/>
    <path d="m89.784 134.44v26.123"/>
   </g>
   <g stroke="url(#linearGradient1072)" stroke-width="2">
    <path d="m85.832 145.27c0-10.931 8.5362-19.731 19.139-19.731 10.603 0 19.139 8.8001 19.139 19.731" stop-color="#000000" style="paint-order:stroke fill markers"/>
    <path d="m122.83 161.41s-0.23761 5.543-1.0291 7.2675c-1.9687 4.2893-10.012 1.7221-10.012 1.7221" style="paint-order:markers stroke fill"/>
    <circle cx="109.7" cy="169.45" r="2.0088" stop-color="#000000" style="paint-order:markers stroke fill"/>
   </g>
  </g>
 </g>
 <g transform="translate(-63.039 -106.54)">
  <circle cx="105" cy="148.5" r="40.961" fill="none" stop-color="#000000" stroke="#04c804" stroke-linecap="round" stroke-linejoin="round" stroke-opacity=".70279" stroke-width="2" style="font-variation-settings:normal;mix-blend-mode:normal;paint-order:markers fill stroke"/>
 </g>
</svg>
