<svg width="12" height="12" viewBox="0 0 12 12" fill="none" xmlns="http://www.w3.org/2000/svg">
<path d="M11.0278 6.74608L11.0371 6.73678L11.0459 6.72701C11.2465 6.50407 11.356 6.23122 11.356 5.928C11.356 5.61013 11.2279 5.33202 10.9982 5.12082C10.7825 4.90978 10.5098 4.8019 10.2097 4.8019H7.0541V1.66649C7.0541 1.36423 6.95352 1.0812 6.73523 0.85787C6.52403 0.628085 6.2459 0.5 5.928 0.5C5.6101 0.5 5.33197 0.628085 5.12077 0.857869C4.90248 1.0812 4.8019 1.36422 4.8019 1.66649V4.8019H1.6463C1.34308 4.8019 1.07022 4.91139 0.847288 5.11203L0.837515 5.12082L0.828217 5.13012C0.611046 5.34729 0.5 5.62353 0.5 5.928C0.5 6.23122 0.609482 6.50407 0.810124 6.72701L0.827728 6.74657L0.847288 6.76417C1.07022 6.96481 1.34308 7.0743 1.6463 7.0743H4.8019V10.2097C4.8019 10.5129 4.91138 10.7858 5.11203 11.0087L5.12082 11.0185L5.13012 11.0278C5.34729 11.245 5.62353 11.356 5.928 11.356C6.23247 11.356 6.50871 11.245 6.72588 11.0278C6.95065 10.803 7.0541 10.5163 7.0541 10.2097V7.0743H10.2097C10.5163 7.0743 10.803 6.97084 11.0278 6.74608Z" fill="#5E5E5E" stroke="#5E5E5E"/>
</svg>
