<svg width="20" height="18" viewBox="0 0 20 18" fill="none" xmlns="http://www.w3.org/2000/svg">
<path d="M6.48436 11.7928H17.0704C17.3326 11.7928 17.5625 11.6209 17.6335 11.3712L19.9774 3.23574C20.0277 3.06035 19.9932 2.87195 19.8823 2.72623C19.7712 2.58095 19.5985 2.49515 19.4142 2.49515H5.13167L4.71282 0.625966C4.65331 0.359783 4.41527 0.170776 4.14061 0.170776H0.585936C0.262145 0.170776 0 0.430755 0 0.75187C0 1.07314 0.262145 1.33296 0.585936 1.33296H3.67034L5.78627 10.7757C5.16371 11.0442 4.72655 11.6587 4.72655 12.3739C4.72655 13.3351 5.51512 14.1172 6.48436 14.1172H17.0704C17.3944 14.1172 17.6564 13.8573 17.6564 13.5361C17.6564 13.215 17.3944 12.955 17.0704 12.955H6.48436C6.16163 12.955 5.89842 12.6946 5.89842 12.3739C5.89842 12.0532 6.16163 11.7928 6.48436 11.7928V11.7928Z" fill="#5E5E5E"/>
<path d="M5.89844 15.8605C5.89844 16.8218 6.68701 17.6037 7.6564 17.6037C8.62563 17.6037 9.41421 16.8218 9.41421 15.8605C9.41421 14.8992 8.62563 14.1172 7.6564 14.1172C6.68701 14.1172 5.89844 14.8992 5.89844 15.8605Z" fill="#5E5E5E"/>
<path d="M14.1406 15.8605C14.1406 16.8218 14.9292 17.6037 15.8984 17.6037C16.8678 17.6037 17.6562 16.8218 17.6562 15.8605C17.6562 14.8992 16.8678 14.1172 15.8984 14.1172C14.9292 14.1172 14.1406 14.8992 14.1406 15.8605Z" fill="#5E5E5E"/>
<path d="M14.8541 7.31007L14.8542 7.31021L14.8595 7.30435C14.9553 7.19786 15.006 7.07045 15.006 6.928C15.006 6.78113 14.9477 6.65409 14.8393 6.55515C14.7389 6.4562 14.6135 6.406 14.472 6.406H12.45V4.396C12.45 4.24993 12.402 4.11941 12.3009 4.01676C12.2019 3.90826 12.0749 3.85 11.928 3.85C11.7811 3.85 11.6541 3.90826 11.5551 4.01676C11.454 4.11941 11.406 4.24993 11.406 4.396V6.406H9.384C9.24155 6.406 9.11414 6.45667 9.00766 6.55251L9.00752 6.55235L9.00193 6.55793C8.90114 6.65873 8.85 6.78517 8.85 6.928C8.85 7.07045 8.90067 7.19786 8.99651 7.30435L9.00179 7.31021L9.00766 7.31549C9.11414 7.41133 9.24155 7.462 9.384 7.462H11.406V9.472C11.406 9.61445 11.4567 9.74186 11.5525 9.84835L11.5524 9.84848L11.5579 9.85407C11.6587 9.95486 11.7852 10.006 11.928 10.006C12.0708 10.006 12.1973 9.95486 12.2981 9.85407C12.4011 9.75099 12.45 9.61941 12.45 9.472V7.462H14.472C14.6194 7.462 14.751 7.41314 14.8541 7.31007Z" fill="white" stroke="white" stroke-width="0.3"/>
</svg>
