<svg width="22" height="22" viewBox="0 0 22 22" fill="none" xmlns="http://www.w3.org/2000/svg">
<mask id="path-1-inside-1" fill="white">
<path d="M20.7653 9.69555C21.3937 9.61161 21.8411 9.03191 21.6921 8.41565C21.2337 6.51893 20.2769 4.771 18.9117 3.35764C17.2795 1.668 15.1493 0.545256 12.833 0.153796C10.5166 -0.237663 8.13581 0.122724 6.03909 1.18219C3.94237 2.24166 2.2399 3.94455 1.18096 6.04154C0.122011 8.13852 -0.237783 10.5194 0.154253 12.8357C0.54629 15.1519 1.66956 17.2819 3.35961 18.9136C5.04965 20.5453 7.21769 21.5931 9.54627 21.9035C11.4941 22.1632 13.4687 21.8956 15.2672 21.1386C15.8516 20.8926 16.0525 20.1885 15.7471 19.633V19.633C15.4416 19.0774 14.7454 18.8826 14.1545 19.1124C12.7917 19.6423 11.3112 19.8226 9.8497 19.6277C8.00713 19.3821 6.29161 18.553 4.95432 17.2618C3.61702 15.9707 2.7282 14.2853 2.41799 12.4525C2.10777 10.6197 2.39247 8.73577 3.23039 7.07647C4.06831 5.41717 5.41544 4.06971 7.07453 3.23137C8.73363 2.39304 10.6175 2.10787 12.4504 2.41762C14.2833 2.72738 15.9689 3.61578 17.2603 4.95276C18.2847 6.01323 19.0185 7.31175 19.401 8.72296C19.5668 9.33488 20.1369 9.7795 20.7653 9.69555V9.69555Z"/>
</mask>
<path d="M20.7653 9.69555C21.3937 9.61161 21.8411 9.03191 21.6921 8.41565C21.2337 6.51893 20.2769 4.771 18.9117 3.35764C17.2795 1.668 15.1493 0.545256 12.833 0.153796C10.5166 -0.237663 8.13581 0.122724 6.03909 1.18219C3.94237 2.24166 2.2399 3.94455 1.18096 6.04154C0.122011 8.13852 -0.237783 10.5194 0.154253 12.8357C0.54629 15.1519 1.66956 17.2819 3.35961 18.9136C5.04965 20.5453 7.21769 21.5931 9.54627 21.9035C11.4941 22.1632 13.4687 21.8956 15.2672 21.1386C15.8516 20.8926 16.0525 20.1885 15.7471 19.633V19.633C15.4416 19.0774 14.7454 18.8826 14.1545 19.1124C12.7917 19.6423 11.3112 19.8226 9.8497 19.6277C8.00713 19.3821 6.29161 18.553 4.95432 17.2618C3.61702 15.9707 2.7282 14.2853 2.41799 12.4525C2.10777 10.6197 2.39247 8.73577 3.23039 7.07647C4.06831 5.41717 5.41544 4.06971 7.07453 3.23137C8.73363 2.39304 10.6175 2.10787 12.4504 2.41762C14.2833 2.72738 15.9689 3.61578 17.2603 4.95276C18.2847 6.01323 19.0185 7.31175 19.401 8.72296C19.5668 9.33488 20.1369 9.7795 20.7653 9.69555V9.69555Z" stroke="#383838" stroke-width="6" stroke-linejoin="round" mask="url(#path-1-inside-1)"/>
</svg>
