<svg xmlns="http://www.w3.org/2000/svg" xmlns:xlink="http://www.w3.org/1999/xlink" viewBox="0 0 1920 1920"><defs><style>.cls-1{fill:none;}.cls-1,.cls-2,.cls-3{clip-rule:evenodd;}.cls-13,.cls-2{fill:url(#Sfumatura_senza_nome_90);}.cls-17,.cls-3{fill:url(#Sfumatura_senza_nome_90-2);}.cls-11,.cls-12,.cls-13,.cls-16,.cls-17,.cls-4,.cls-5,.cls-6,.cls-7,.cls-8{fill-rule:evenodd;}.cls-4{fill:url(#Sfumatura_senza_nome_79);}.cls-5{fill:url(#Sfumatura_senza_nome_79-2);}.cls-6{fill:url(#Sfumatura_senza_nome_79-3);}.cls-7{fill:url(#Gradiente_sem_nome_13);}.cls-8{fill:url(#Sfumatura_senza_nome_90-3);}.cls-9{fill:#fff;}.cls-10{clip-path:url(#clip-path);}.cls-11{fill:#8fd4f6;}.cls-12{fill:url(#Sfumatura_senza_nome_79-4);}.cls-14{clip-path:url(#clip-path-2);}.cls-15{clip-path:url(#clip-path-3);}.cls-16{fill:url(#Sfumatura_senza_nome_79-5);}.cls-18{clip-path:url(#clip-path-4);}</style><linearGradient id="Sfumatura_senza_nome_90" x1="836.49" y1="1559.09" x2="923.23" y2="1559.09" gradientUnits="userSpaceOnUse"><stop offset="0" stop-color="#1eb6c4"/><stop offset="1" stop-color="#3d277d"/></linearGradient><linearGradient id="Sfumatura_senza_nome_90-2" x1="836.49" y1="1612.61" x2="923.23" y2="1612.61" xlink:href="#Sfumatura_senza_nome_90"/><linearGradient id="Sfumatura_senza_nome_79" x1="480.41" y1="1039.18" x2="968.94" y2="1039.18" gradientUnits="userSpaceOnUse"><stop offset="0" stop-color="#6b2475"/><stop offset="1" stop-color="#e8335d"/></linearGradient><linearGradient id="Sfumatura_senza_nome_79-2" x1="130.74" y1="874.66" x2="675.63" y2="874.66" xlink:href="#Sfumatura_senza_nome_79"/><linearGradient id="Sfumatura_senza_nome_79-3" x1="589.4" y1="854.96" x2="1138.04" y2="854.96" xlink:href="#Sfumatura_senza_nome_79"/><linearGradient id="Gradiente_sem_nome_13" x1="933.4" y1="747.59" x2="1787.76" y2="747.59" xlink:href="#Sfumatura_senza_nome_90"/><linearGradient id="Sfumatura_senza_nome_90-3" x1="909.15" y1="999.04" x2="1788.01" y2="999.04" xlink:href="#Sfumatura_senza_nome_90"/><clipPath id="clip-path"><path id="SVGID" class="cls-1" d="M873.55,1540.22H813c-7.65,0-13.41,8.08-13.41,18.87S805.31,1578,813,1578h60.59c7,0,12.74-8.09,12.74-18.88s-5.76-18.87-12.74-18.87Z"/></clipPath><linearGradient id="Sfumatura_senza_nome_79-4" x1="687.29" y1="1540.8" x2="1107.13" y2="1540.8" xlink:href="#Sfumatura_senza_nome_79"/><clipPath id="clip-path-2"><path id="SVGID-2" data-name="SVGID" class="cls-2" d="M910.49,1540.22H849.9c-7.65,0-13.41,8.08-13.41,18.87S842.25,1578,849.9,1578h60.59c7,0,12.74-8.09,12.74-18.88s-5.76-18.87-12.74-18.87Z"/></clipPath><clipPath id="clip-path-3"><path id="SVGID-3" data-name="SVGID" class="cls-1" d="M873.55,1593.73H813c-7.65,0-13.41,8.08-13.41,18.88s5.76,18.87,13.41,18.87h60.59c7,0,12.74-8.08,12.74-18.87s-5.76-18.88-12.74-18.88Z"/></clipPath><linearGradient id="Sfumatura_senza_nome_79-5" x1="687.29" y1="1594.32" x2="1107.13" y2="1594.32" xlink:href="#Sfumatura_senza_nome_79"/><clipPath id="clip-path-4"><path id="SVGID-4" data-name="SVGID" class="cls-3" d="M910.49,1593.73H849.9c-7.65,0-13.41,8.08-13.41,18.88s5.76,18.87,13.41,18.87h60.59c7,0,12.74-8.08,12.74-18.87s-5.76-18.88-12.74-18.88Z"/></clipPath></defs><g id="Camada_6" data-name="Camada 6"><path class="cls-4" d="M968.62,968.92H480.41c2.11,8.93,4.58,16.88,7,25.3,11.28,33.73,27.85,62.51,50.06,83.34,23.26,21.83,49.7,31.76,77.54,31.76H968.94l-181.18.11h117.9Z"/><path class="cls-5" d="M559.9,275.3c-44.73,28.82-74.54,72.58-92.47,121.81L141.58,1291.39c-10.77,29.55-13.9,60.71-7.66,91.29,7,36.35,27,66.39,54.52,91.57,5.55,4.39,12.29,10.07,17.94,14.18.45.33,48.49.19,49,.19L629.52,457l46.11-122.48-31.23-70c.07-.32.43-1.71.08-1.77C605.25,256,572.52,267.16,559.9,275.3Z"/><path class="cls-6" d="M773.08,426.72l-5.77-16.4-3.4-9.38c-20.52-56.6-60.82-102.44-114.26-135.15l-5.17-3c-33.14,59.77-69.56,113.11-49.2,170.27l8.46,23.73,37,105.69.61-.23,273.32,767.22c10.55,29.62,28.16,56,52.81,76.53,29,24.58,109.27,36.62,147.23,40.42,7.79.23,15.74.88,23.37.7Z"/><path class="cls-7" d="M1681.23,353.52c10.89,11.71,16.08,28.05,16.08,49v40.87a313.88,313.88,0,0,1-1.92,38.41,152.8,152.8,0,0,1-7.62,31.6,200.9,200.9,0,0,1-14.45,31.88c-6,10.63-13.89,23.43-23.15,38.41l-410.28,652.2h547.87q-1.65-4.49-3.28-9l-.27-.55-.27-.54c-16.89-39.78-51.23-67-95.08-67H1379.37l335.91-534c8.72-13.89,17.43-27.79,25.34-42a267.32,267.32,0,0,0,19.89-44.13A231.36,231.36,0,0,0,1772,491.91a411.49,411.49,0,0,0,2.45-48.49V402.55c0-37.59-10.62-73.56-36.5-101.34-28.06-30.24-66.75-42-106.8-42H1037.47c-19.62,0-38.69,4.64-55.58,14.44-20.16,11.44-34,28.88-43.59,49.59-1.63,4.35-3.54,8.72-4.9,13.07h697.7C1653.71,336.35,1670.33,341.8,1681.23,353.52Z"/><path class="cls-8" d="M1055.17,1411.37c-22.07,0-39-6.26-51-19.07s-18-31.59-18-55.84v-36.23a206.41,206.41,0,0,1,2.18-30.53,141,141,0,0,1,7.09-28.06c3.26-9.25,8.16-19.33,14.43-30.5q9.81-16.76,23.7-40.06l417.09-661.46H933.4c1.63,4.9,3.54,9.26,5.44,13.89,8.72,18.53,21.53,34.33,38.69,45.77,18,12,38.42,17.44,59.94,17.44H1311l-343,544-.27.83c-8.17,13.34-16.35,26.69-24.24,40.32l-.28.54-.54.82a300.93,300.93,0,0,0-19.88,42.49A222.71,222.71,0,0,0,912.15,1258a271.66,271.66,0,0,0-3,42.24v36.23c0,40,10.9,78.72,38.69,108.42,28.33,30.24,66.46,43.59,107.33,43.59h633.69a101.55,101.55,0,0,0,55-16.34c19.07-12,32.41-30,40.59-50.94l.27-.83.54-.82c.82-2.73,1.92-5.44,2.72-8.17Z"/><path class="cls-9" d="M914.61,1631.48H900.89V1540.7h12.78l47.05,66.94h.51V1540.7h13.71v90.78H962.23l-47.05-66.87h-.57Z"/><path class="cls-9" d="M1044.42,1540.7v57.69q0,9.94,6,16t16.64,6.07q10.64,0,16.67-6.07t6-16V1540.7h14v58.89q0,14.91-9.94,24.15t-26.8,9.25q-16.86,0-26.8-9.25t-9.94-24.15V1540.7Z"/><path class="cls-9" d="M1195.81,1631.48h-14.09v-78.64h-27.81V1540.7h69.65v12.14h-27.75Z"/><path class="cls-9" d="M1287.75,1596.57v34.91h-14.09V1540.7h35.17q14,0,22.14,7.52t8.18,20.23a28.34,28.34,0,0,1-4.68,16.2,24.64,24.64,0,0,1-12.93,9.72l20.32,37.11h-16.23l-18.5-34.91Zm0-44v32.65h19.76q8.17,0,12.64-4.28t4.47-12.08q0-7.6-4.65-12t-12.84-4.34Z"/><path class="cls-9" d="M1405.49,1631.48h-14.1V1540.7h14.1Z"/><path class="cls-9" d="M1523.72,1603.24h14q-2.38,13-11.29,20.73t-22.68,8.83l-2.83,6.42q5.91.06,9.4,2.74a8.78,8.78,0,0,1,3.5,7.39,9.64,9.64,0,0,1-4.16,8.31q-4.14,3-10.88,3.08a30.61,30.61,0,0,1-9.25-.88V1653a34.53,34.53,0,0,0,7.55.75c5.08,0,7.61-1.38,7.61-4.15a3,3,0,0,0-2-2.95,18,18,0,0,0-6.64-.89h-4.21v-5l3.27-8q-17.37-1.38-27.43-13.84t-10.07-32.9q0-21.51,11.26-34.19t30.33-12.68q15.48,0,26.11,8.72a33.88,33.88,0,0,1,12.39,22.86h-14a23.44,23.44,0,0,0-8.58-14,25.05,25.05,0,0,0-16-5.26q-12.39,0-19.79,9.41t-7.39,25.13q0,15.92,7.36,25.26t19.88,9.34q9.43,0,15.89-4.59A21.94,21.94,0,0,0,1523.72,1603.24Z"/><path class="cls-9" d="M1647.12,1631.48l-8.31-24.53h-34.6l-8.3,24.53h-14.66L1614,1540.7h15.22l32.78,90.78Zm-17-99a10.68,10.68,0,0,1-4.43-.94,14.46,14.46,0,0,1-3.65-2.3c-1-.9-2-1.8-2.9-2.71a18.4,18.4,0,0,0-2.76-2.29,5,5,0,0,0-2.74-1,3.72,3.72,0,0,0-3.4,2.24,12.52,12.52,0,0,0-1.07,6.19h-8.36q0-7.73,3.49-12.07a11.18,11.18,0,0,1,9.15-4.35,11.7,11.7,0,0,1,4.66,1,13.66,13.66,0,0,1,3.71,2.29c1,.91,2,1.81,2.86,2.71a21.62,21.62,0,0,0,2.67,2.3,4.46,4.46,0,0,0,2.58.94,3.49,3.49,0,0,0,3.21-2.2,14.35,14.35,0,0,0,1.14-6.42h8.36q0,7.62-3.52,12.11A11,11,0,0,1,1630.13,1532.46Zm-8.8,23.34-13.53,39.82h27.43l-13.53-39.82Z"/><path class="cls-9" d="M1746.73,1539.19q19.57,0,31,12.65t11.48,34.28q0,21.64-11.45,34.26T1746.73,1633q-19.62,0-31.07-12.61t-11.45-34.26q0-21.63,11.45-34.28T1746.73,1539.19Zm0,12.39q-13,0-20.54,9.32t-7.58,25.22q0,15.86,7.58,25.17t20.54,9.31q12.9,0,20.48-9.31t7.58-25.17q0-15.91-7.58-25.22T1746.73,1551.58Z"/><g class="cls-10"><path class="cls-11" d="M873.55,1540.22H813c-7.65,0-13.41,8.08-13.41,18.87S805.31,1578,813,1578h60.59c7,0,12.74-8.09,12.74-18.88s-5.76-18.87-12.74-18.87Z"/><path class="cls-12" d="M1106.85,1481.68H687.29c1.81,7.51,3.93,14.2,6.05,21.29,9.69,28.39,23.93,52.61,43,70.14,20,18.37,42.71,26.72,66.64,26.72h304.13l-155.71.1h101.33Z"/><path id="SVGID-5" data-name="SVGID" class="cls-13" d="M910.49,1540.22H849.9c-7.65,0-13.41,8.08-13.41,18.87S842.25,1578,849.9,1578h60.59c7,0,12.74-8.09,12.74-18.88s-5.76-18.87-12.74-18.87Z"/><g class="cls-14"><path class="cls-13" d="M910.49,1540.22H849.9c-7.65,0-13.41,8.08-13.41,18.87S842.25,1578,849.9,1578h60.59c7,0,12.74-8.09,12.74-18.88s-5.76-18.87-12.74-18.87Z"/></g></g><g class="cls-15"><path class="cls-11" d="M873.55,1593.73H813c-7.65,0-13.41,8.08-13.41,18.88s5.76,18.87,13.41,18.87h60.59c7,0,12.74-8.08,12.74-18.87s-5.76-18.88-12.74-18.88Z"/><path class="cls-16" d="M1106.85,1535.19H687.29c1.81,7.51,3.93,14.2,6.05,21.29,9.69,28.39,23.93,52.61,43,70.14,20,18.37,42.71,26.73,66.64,26.73h304.13l-155.71.09h101.33Z"/><path id="SVGID-6" data-name="SVGID" class="cls-17" d="M910.49,1593.73H849.9c-7.65,0-13.41,8.08-13.41,18.88s5.76,18.87,13.41,18.87h60.59c7,0,12.74-8.08,12.74-18.87s-5.76-18.88-12.74-18.88Z"/><g class="cls-18"><path class="cls-17" d="M910.49,1593.73H849.9c-7.65,0-13.41,8.08-13.41,18.88s5.76,18.87,13.41,18.87h60.59c7,0,12.74-8.08,12.74-18.87s-5.76-18.88-12.74-18.88Z"/></g></g></g></svg>