<svg xmlns="http://www.w3.org/2000/svg" xmlns:xlink="http://www.w3.org/1999/xlink" viewBox="0 0 1920 1920"><defs><style>.cls-1{fill:none;}.cls-1,.cls-2,.cls-3{clip-rule:evenodd;}.cls-13,.cls-2{fill:url(#Sfumatura_senza_nome_90);}.cls-17,.cls-3{fill:url(#Sfumatura_senza_nome_90-2);}.cls-11,.cls-12,.cls-13,.cls-16,.cls-17,.cls-4,.cls-5,.cls-6,.cls-7,.cls-8{fill-rule:evenodd;}.cls-4{fill:url(#Sfumatura_senza_nome_79);}.cls-5{fill:url(#Sfumatura_senza_nome_79-2);}.cls-6{fill:url(#Sfumatura_senza_nome_79-3);}.cls-7{fill:url(#Gradiente_sem_nome_13);}.cls-8{fill:url(#Sfumatura_senza_nome_90-3);}.cls-9{fill:#3d277b;}.cls-10{clip-path:url(#clip-path);}.cls-11{fill:#8fd4f6;}.cls-12{fill:url(#Sfumatura_senza_nome_79-4);}.cls-14{clip-path:url(#clip-path-2);}.cls-15{clip-path:url(#clip-path-3);}.cls-16{fill:url(#Sfumatura_senza_nome_79-5);}.cls-18{clip-path:url(#clip-path-4);}</style><linearGradient id="Sfumatura_senza_nome_90" x1="788.53" y1="1611.55" x2="875.27" y2="1611.55" gradientUnits="userSpaceOnUse"><stop offset="0" stop-color="#1eb6c4"/><stop offset="1" stop-color="#3d277d"/></linearGradient><linearGradient id="Sfumatura_senza_nome_90-2" x1="788.53" y1="1665.07" x2="875.27" y2="1665.07" xlink:href="#Sfumatura_senza_nome_90"/><linearGradient id="Sfumatura_senza_nome_79" x1="432.45" y1="1091.64" x2="920.98" y2="1091.64" gradientUnits="userSpaceOnUse"><stop offset="0" stop-color="#6b2475"/><stop offset="1" stop-color="#e8335d"/></linearGradient><linearGradient id="Sfumatura_senza_nome_79-2" x1="82.78" y1="927.12" x2="627.67" y2="927.12" xlink:href="#Sfumatura_senza_nome_79"/><linearGradient id="Sfumatura_senza_nome_79-3" x1="541.44" y1="907.42" x2="1090.08" y2="907.42" xlink:href="#Sfumatura_senza_nome_79"/><linearGradient id="Gradiente_sem_nome_13" x1="885.44" y1="800.04" x2="1739.8" y2="800.04" xlink:href="#Sfumatura_senza_nome_90"/><linearGradient id="Sfumatura_senza_nome_90-3" x1="861.19" y1="1051.5" x2="1740.06" y2="1051.5" xlink:href="#Sfumatura_senza_nome_90"/><clipPath id="clip-path"><path id="SVGID" class="cls-1" d="M825.59,1592.68H765c-7.65,0-13.41,8.08-13.41,18.87s5.76,18.88,13.41,18.88h60.59c7,0,12.74-8.09,12.74-18.88s-5.76-18.87-12.74-18.87Z"/></clipPath><linearGradient id="Sfumatura_senza_nome_79-4" x1="639.33" y1="1593.26" x2="1059.17" y2="1593.26" xlink:href="#Sfumatura_senza_nome_79"/><clipPath id="clip-path-2"><path id="SVGID-2" data-name="SVGID" class="cls-2" d="M862.53,1592.68H801.94c-7.65,0-13.41,8.08-13.41,18.87s5.76,18.88,13.41,18.88h60.59c7,0,12.74-8.09,12.74-18.88s-5.76-18.87-12.74-18.87Z"/></clipPath><clipPath id="clip-path-3"><path id="SVGID-3" data-name="SVGID" class="cls-1" d="M825.59,1646.19H765c-7.65,0-13.41,8.08-13.41,18.88s5.76,18.87,13.41,18.87h60.59c7,0,12.74-8.08,12.74-18.87s-5.76-18.88-12.74-18.88Z"/></clipPath><linearGradient id="Sfumatura_senza_nome_79-5" x1="639.33" y1="1646.78" x2="1059.17" y2="1646.78" xlink:href="#Sfumatura_senza_nome_79"/><clipPath id="clip-path-4"><path id="SVGID-4" data-name="SVGID" class="cls-3" d="M862.53,1646.19H801.94c-7.65,0-13.41,8.08-13.41,18.88s5.76,18.87,13.41,18.87h60.59c7,0,12.74-8.08,12.74-18.87s-5.76-18.88-12.74-18.88Z"/></clipPath></defs><g id="Camada_6" data-name="Camada 6"><path class="cls-4" d="M920.66,1021.38H432.45c2.11,8.93,4.58,16.88,7,25.3,11.28,33.73,27.85,62.51,50.06,83.34,23.26,21.83,49.7,31.76,77.55,31.76H921l-181.18.11H857.7Z"/><path class="cls-5" d="M511.94,327.76c-44.72,28.82-74.53,72.58-92.47,121.81L93.62,1343.85c-10.77,29.55-13.9,60.71-7.66,91.29,7,36.35,27,66.39,54.52,91.57,5.55,4.39,12.29,10.06,17.94,14.18.46.33,48.49.19,49,.19L581.56,509.49,627.67,387l-31.23-70c.07-.33.43-1.71.08-1.77C557.29,308.41,524.56,319.62,511.94,327.76Z"/><path class="cls-6" d="M725.12,479.18l-5.77-16.4L716,453.4C695.43,396.8,655.13,351,601.69,318.25l-5.17-3C563.38,375,527,428.35,547.33,485.51l8.45,23.73,37,105.69.61-.23,273.32,767.21c10.55,29.63,28.16,56,52.81,76.54,29,24.58,109.27,36.62,147.23,40.42,7.79.23,15.74.87,23.37.7Z"/><path class="cls-7" d="M1633.27,406c10.89,11.71,16.08,28,16.08,49v40.87a314,314,0,0,1-1.92,38.41,153,153,0,0,1-7.62,31.6,200.9,200.9,0,0,1-14.45,31.88c-6,10.63-13.89,23.43-23.15,38.41l-410.28,652.2H1739.8q-1.65-4.49-3.28-9l-.27-.55-.27-.54c-16.89-39.78-51.22-67-95.08-67H1331.41l335.91-534c8.72-13.89,17.44-27.79,25.34-42a267.32,267.32,0,0,0,19.89-44.13A231.36,231.36,0,0,0,1724,544.37a411.49,411.49,0,0,0,2.45-48.49V455c0-37.59-10.62-73.56-36.5-101.34-28.06-30.24-66.75-42-106.8-42H989.51c-19.62,0-38.69,4.64-55.58,14.44-20.16,11.44-34,28.88-43.59,49.59-1.63,4.35-3.54,8.72-4.9,13.07h697.7C1605.75,388.81,1622.37,394.26,1633.27,406Z"/><path class="cls-8" d="M1007.21,1463.83c-22.06,0-39-6.26-50.94-19.07s-18-31.59-18-55.84v-36.23a206.41,206.41,0,0,1,2.18-30.53,141,141,0,0,1,7.09-28.06c3.26-9.25,8.16-19.33,14.43-30.5q9.81-16.75,23.7-40.06l417.09-661.46H885.44c1.63,4.9,3.54,9.26,5.45,13.89,8.71,18.53,21.52,34.33,38.68,45.77,18,12,38.42,17.44,59.94,17.44H1263l-343,544-.28.83c-8.17,13.34-16.35,26.69-24.24,40.32l-.28.54-.54.82a300.93,300.93,0,0,0-19.88,42.49,222.71,222.71,0,0,0-10.63,42.23,272.9,272.9,0,0,0-3,42.24v36.23c0,40,10.9,78.72,38.69,108.42,28.33,30.24,66.47,43.59,107.33,43.59H1640.9a101.55,101.55,0,0,0,55-16.34c19.07-12,32.41-30,40.59-50.94l.27-.83.54-.82c.82-2.73,1.92-5.44,2.73-8.17Z"/><path class="cls-9" d="M866.65,1683.94H852.94v-90.78h12.77l47,66.94h.51v-66.94H927v90.78H914.27l-47-66.87h-.57Z"/><path class="cls-9" d="M996.46,1593.16v57.69q0,9.95,6,16t16.64,6.07q10.64,0,16.67-6.07t6-16v-57.69h14v58.89q0,14.91-9.94,24.15t-26.8,9.25q-16.86,0-26.8-9.25t-9.94-24.15v-58.89Z"/><path class="cls-9" d="M1147.85,1683.94h-14.09V1605.3H1106v-12.14h69.64v12.14h-27.75Z"/><path class="cls-9" d="M1239.79,1649v34.91H1225.7v-90.78h35.17q14,0,22.14,7.52t8.18,20.22a28.35,28.35,0,0,1-4.68,16.21,24.57,24.57,0,0,1-12.93,9.71l20.32,37.12h-16.23l-18.5-34.91Zm0-44v32.65h19.76q8.17,0,12.64-4.28t4.47-12.08q0-7.6-4.65-12t-12.84-4.34Z"/><path class="cls-9" d="M1357.53,1683.94h-14.09v-90.78h14.09Z"/><path class="cls-9" d="M1475.76,1655.7h14q-2.38,13-11.29,20.73t-22.68,8.83l-2.83,6.42q5.91.06,9.41,2.74a8.8,8.8,0,0,1,3.49,7.39,9.62,9.62,0,0,1-4.15,8.3c-2.77,2-6.4,3-10.89,3.09a30.65,30.65,0,0,1-9.25-.88v-6.86a34.59,34.59,0,0,0,7.55.75c5.08,0,7.61-1.38,7.61-4.15a3,3,0,0,0-2-3,18,18,0,0,0-6.64-.89h-4.21v-5l3.27-8q-17.37-1.38-27.43-13.84t-10.07-32.9q0-21.51,11.27-34.19t30.32-12.68q15.48,0,26.11,8.71a33.88,33.88,0,0,1,12.39,22.87h-14a23.49,23.49,0,0,0-8.58-14,25.1,25.1,0,0,0-16-5.25q-12.39,0-19.79,9.41t-7.39,25.13q0,15.92,7.36,25.26t19.88,9.34q9.43,0,15.89-4.59A21.9,21.9,0,0,0,1475.76,1655.7Z"/><path class="cls-9" d="M1599.16,1683.94l-8.3-24.53h-34.61l-8.3,24.53h-14.66l32.78-90.78h15.22l32.78,90.78Zm-17-99a10.68,10.68,0,0,1-4.43-.94,14.46,14.46,0,0,1-3.65-2.3c-1-.9-2-1.8-2.89-2.71a19,19,0,0,0-2.77-2.29,5,5,0,0,0-2.74-1,3.72,3.72,0,0,0-3.4,2.24,12.52,12.52,0,0,0-1.07,6.19h-8.36q0-7.73,3.49-12.07a11.18,11.18,0,0,1,9.15-4.35,11.7,11.7,0,0,1,4.66,1,13.66,13.66,0,0,1,3.71,2.29c1,.91,2,1.81,2.86,2.71a21,21,0,0,0,2.68,2.3,4.51,4.51,0,0,0,2.58.94,3.49,3.49,0,0,0,3.2-2.2,14.35,14.35,0,0,0,1.14-6.42h8.36q0,7.62-3.52,12.11A11,11,0,0,1,1582.17,1584.92Zm-8.8,23.34-13.53,39.82h27.43l-13.53-39.82Z"/><path class="cls-9" d="M1698.77,1591.65q19.57,0,31,12.65t11.48,34.28q0,21.64-11.45,34.26t-31.08,12.61q-19.62,0-31.07-12.61t-11.45-34.26q0-21.63,11.45-34.28T1698.77,1591.65Zm0,12.39q-13,0-20.54,9.32t-7.58,25.22q0,15.86,7.58,25.17t20.54,9.31q12.9,0,20.48-9.31t7.58-25.17q0-15.91-7.58-25.22T1698.77,1604Z"/><g class="cls-10"><path class="cls-11" d="M825.59,1592.68H765c-7.65,0-13.41,8.08-13.41,18.87s5.76,18.88,13.41,18.88h60.59c7,0,12.74-8.09,12.74-18.88s-5.76-18.87-12.74-18.87Z"/><path class="cls-12" d="M1058.89,1534.14H639.33c1.81,7.51,3.93,14.2,6,21.29,9.69,28.39,23.93,52.61,43,70.14,20,18.37,42.71,26.72,66.64,26.72h304.13l-155.71.09h101.33Z"/><path id="SVGID-5" data-name="SVGID" class="cls-13" d="M862.53,1592.68H801.94c-7.65,0-13.41,8.08-13.41,18.87s5.76,18.88,13.41,18.88h60.59c7,0,12.74-8.09,12.74-18.88s-5.76-18.87-12.74-18.87Z"/><g class="cls-14"><path class="cls-13" d="M862.53,1592.68H801.94c-7.65,0-13.41,8.08-13.41,18.87s5.76,18.88,13.41,18.88h60.59c7,0,12.74-8.09,12.74-18.88s-5.76-18.87-12.74-18.87Z"/></g></g><g class="cls-15"><path class="cls-11" d="M825.59,1646.19H765c-7.65,0-13.41,8.08-13.41,18.88s5.76,18.87,13.41,18.87h60.59c7,0,12.74-8.08,12.74-18.87s-5.76-18.88-12.74-18.88Z"/><path class="cls-16" d="M1058.89,1587.65H639.33c1.81,7.51,3.93,14.2,6,21.29,9.69,28.39,23.93,52.61,43,70.14,20,18.37,42.71,26.73,66.64,26.73h304.13l-155.71.09h101.33Z"/><path id="SVGID-6" data-name="SVGID" class="cls-17" d="M862.53,1646.19H801.94c-7.65,0-13.41,8.08-13.41,18.88s5.76,18.87,13.41,18.87h60.59c7,0,12.74-8.08,12.74-18.87s-5.76-18.88-12.74-18.88Z"/><g class="cls-18"><path class="cls-17" d="M862.53,1646.19H801.94c-7.65,0-13.41,8.08-13.41,18.88s5.76,18.87,13.41,18.87h60.59c7,0,12.74-8.08,12.74-18.87s-5.76-18.88-12.74-18.88Z"/></g></g></g></svg>